<?xml version="1.0" encoding="utf-8" standalone="no"?>
<!DOCTYPE svg PUBLIC "-//W3C//DTD SVG 1.1//EN"
  "http://www.w3.org/Graphics/SVG/1.1/DTD/svg11.dtd">
<svg height="339.47945pt" version="1.1" viewBox="0 0 461.228125 339.47945" width="461.228125pt" xmlns="http://www.w3.org/2000/svg" xmlns:xlink="http://www.w3.org/1999/xlink">
 <metadata>
  <rdf:RDF xmlns:cc="http://creativecommons.org/ns#" xmlns:dc="http://purl.org/dc/elements/1.1/" xmlns:rdf="http://www.w3.org/1999/02/22-rdf-syntax-ns#">
   <cc:Work>
    <dc:type rdf:resource="http://purl.org/dc/dcmitype/StillImage"/>
    <dc:date>2021-10-17T18:07:22.898839</dc:date>
    <dc:format>image/svg+xml</dc:format>
    <dc:creator>
     <cc:Agent>
      <dc:title>Matplotlib v3.4.3, https://matplotlib.org/</dc:title>
     </cc:Agent>
    </dc:creator>
   </cc:Work>
  </rdf:RDF>
 </metadata>
 <defs>
  <style type="text/css">*{stroke-linecap:butt;stroke-linejoin:round;}</style>
 </defs>
 <g id="figure_1">
  <g id="patch_1">
   <path d="M 0 339.47945 
L 461.228125 339.47945 
L 461.228125 0 
L 0 0 
z
" style="fill:#ffffff;"/>
  </g>
  <g id="axes_1">
   <g id="patch_2">
    <path d="M 96.908125 273.312 
L 454.028125 273.312 
L 454.028125 7.2 
L 96.908125 7.2 
z
" style="fill:#ffffff;"/>
   </g>
   <g id="patch_3">
    <path clip-path="url(#ped75d86283)" d="M 96.908125 9.4176 
L 437.022411 9.4176 
L 437.022411 18.288 
L 96.908125 18.288 
z
" style="fill:#aeccdb;"/>
   </g>
   <g id="patch_4">
    <path clip-path="url(#ped75d86283)" d="M 96.908125 31.5936 
L 437.022411 31.5936 
L 437.022411 40.464 
L 96.908125 40.464 
z
" style="fill:#aeccdb;"/>
   </g>
   <g id="patch_5">
    <path clip-path="url(#ped75d86283)" d="M 96.908125 53.7696 
L 437.022411 53.7696 
L 437.022411 62.64 
L 96.908125 62.64 
z
" style="fill:#aeccdb;"/>
   </g>
   <g id="patch_6">
    <path clip-path="url(#ped75d86283)" d="M 96.908125 75.9456 
L 437.022411 75.9456 
L 437.022411 84.816 
L 96.908125 84.816 
z
" style="fill:#aeccdb;"/>
   </g>
   <g id="patch_7">
    <path clip-path="url(#ped75d86283)" d="M 96.908125 98.1216 
L 437.022411 98.1216 
L 437.022411 106.992 
L 96.908125 106.992 
z
" style="fill:#aeccdb;"/>
   </g>
   <g id="patch_8">
    <path clip-path="url(#ped75d86283)" d="M 96.908125 120.2976 
L 437.022411 120.2976 
L 437.022411 129.168 
L 96.908125 129.168 
z
" style="fill:#aeccdb;"/>
   </g>
   <g id="patch_9">
    <path clip-path="url(#ped75d86283)" d="M 96.908125 142.4736 
L 437.022411 142.4736 
L 437.022411 151.344 
L 96.908125 151.344 
z
" style="fill:#aeccdb;"/>
   </g>
   <g id="patch_10">
    <path clip-path="url(#ped75d86283)" d="M 96.908125 164.6496 
L 437.022411 164.6496 
L 437.022411 173.52 
L 96.908125 173.52 
z
" style="fill:#aeccdb;"/>
   </g>
   <g id="patch_11">
    <path clip-path="url(#ped75d86283)" d="M 96.908125 186.8256 
L 437.022411 186.8256 
L 437.022411 195.696 
L 96.908125 195.696 
z
" style="fill:#aeccdb;"/>
   </g>
   <g id="patch_12">
    <path clip-path="url(#ped75d86283)" d="M 96.908125 209.0016 
L 437.022411 209.0016 
L 437.022411 217.872 
L 96.908125 217.872 
z
" style="fill:#aeccdb;"/>
   </g>
   <g id="patch_13">
    <path clip-path="url(#ped75d86283)" d="M 96.908125 231.1776 
L 437.022411 231.1776 
L 437.022411 240.048 
L 96.908125 240.048 
z
" style="fill:#aeccdb;"/>
   </g>
   <g id="patch_14">
    <path clip-path="url(#ped75d86283)" d="M 96.908125 253.3536 
L 437.022411 253.3536 
L 437.022411 262.224 
L 96.908125 262.224 
z
" style="fill:#aeccdb;"/>
   </g>
   <g id="patch_15">
    <path clip-path="url(#ped75d86283)" d="M 96.908125 18.288 
L 437.022411 18.288 
L 437.022411 27.1584 
L 96.908125 27.1584 
z
" style="fill:#3274a1;"/>
   </g>
   <g id="patch_16">
    <path clip-path="url(#ped75d86283)" d="M 96.908125 40.464 
L 437.022411 40.464 
L 437.022411 49.3344 
L 96.908125 49.3344 
z
" style="fill:#3274a1;"/>
   </g>
   <g id="patch_17">
    <path clip-path="url(#ped75d86283)" d="M 96.908125 62.64 
L 437.022411 62.64 
L 437.022411 71.5104 
L 96.908125 71.5104 
z
" style="fill:#3274a1;"/>
   </g>
   <g id="patch_18">
    <path clip-path="url(#ped75d86283)" d="M 96.908125 84.816 
L 437.022411 84.816 
L 437.022411 93.6864 
L 96.908125 93.6864 
z
" style="fill:#3274a1;"/>
   </g>
   <g id="patch_19">
    <path clip-path="url(#ped75d86283)" d="M 96.908125 106.992 
L 437.022411 106.992 
L 437.022411 115.8624 
L 96.908125 115.8624 
z
" style="fill:#3274a1;"/>
   </g>
   <g id="patch_20">
    <path clip-path="url(#ped75d86283)" d="M 96.908125 129.168 
L 437.022411 129.168 
L 437.022411 138.0384 
L 96.908125 138.0384 
z
" style="fill:#3274a1;"/>
   </g>
   <g id="patch_21">
    <path clip-path="url(#ped75d86283)" d="M 96.908125 151.344 
L 437.022411 151.344 
L 437.022411 160.2144 
L 96.908125 160.2144 
z
" style="fill:#3274a1;"/>
   </g>
   <g id="patch_22">
    <path clip-path="url(#ped75d86283)" d="M 96.908125 173.52 
L 368.999554 173.52 
L 368.999554 182.3904 
L 96.908125 182.3904 
z
" style="fill:#3274a1;"/>
   </g>
   <g id="patch_23">
    <path clip-path="url(#ped75d86283)" d="M 96.908125 195.696 
L 437.022411 195.696 
L 437.022411 204.5664 
L 96.908125 204.5664 
z
" style="fill:#3274a1;"/>
   </g>
   <g id="patch_24">
    <path clip-path="url(#ped75d86283)" d="M 96.908125 217.872 
L 437.022411 217.872 
L 437.022411 226.7424 
L 96.908125 226.7424 
z
" style="fill:#3274a1;"/>
   </g>
   <g id="patch_25">
    <path clip-path="url(#ped75d86283)" d="M 96.908125 240.048 
L 437.022411 240.048 
L 437.022411 248.9184 
L 96.908125 248.9184 
z
" style="fill:#3274a1;"/>
   </g>
   <g id="patch_26">
    <path clip-path="url(#ped75d86283)" d="M 96.908125 262.224 
L 437.022411 262.224 
L 437.022411 271.0944 
L 96.908125 271.0944 
z
" style="fill:#3274a1;"/>
   </g>
   <g id="matplotlib.axis_1">
    <g id="xtick_1">
     <g id="line2d_1">
      <defs>
       <path d="M 0 0 
L 0 3.5 
" id="m098b76172f" style="stroke:#000000;stroke-width:0.8;"/>
      </defs>
      <g>
       <use style="stroke:#000000;stroke-width:0.8;" x="96.908125" xlink:href="#m098b76172f" y="273.312"/>
      </g>
     </g>
     <g id="text_1">
      <!-- 0.0 -->
      <g transform="translate(88.956563 287.910437)scale(0.1 -0.1)">
       <defs>
        <path d="M 2034 4250 
Q 1547 4250 1301 3770 
Q 1056 3291 1056 2328 
Q 1056 1369 1301 889 
Q 1547 409 2034 409 
Q 2525 409 2770 889 
Q 3016 1369 3016 2328 
Q 3016 3291 2770 3770 
Q 2525 4250 2034 4250 
z
M 2034 4750 
Q 2819 4750 3233 4129 
Q 3647 3509 3647 2328 
Q 3647 1150 3233 529 
Q 2819 -91 2034 -91 
Q 1250 -91 836 529 
Q 422 1150 422 2328 
Q 422 3509 836 4129 
Q 1250 4750 2034 4750 
z
" id="DejaVuSans-30" transform="scale(0.015625)"/>
        <path d="M 684 794 
L 1344 794 
L 1344 0 
L 684 0 
L 684 794 
z
" id="DejaVuSans-2e" transform="scale(0.015625)"/>
       </defs>
       <use xlink:href="#DejaVuSans-30"/>
       <use x="63.623047" xlink:href="#DejaVuSans-2e"/>
       <use x="95.410156" xlink:href="#DejaVuSans-30"/>
      </g>
     </g>
    </g>
    <g id="xtick_2">
     <g id="line2d_2">
      <g>
       <use style="stroke:#000000;stroke-width:0.8;" x="164.930982" xlink:href="#m098b76172f" y="273.312"/>
      </g>
     </g>
     <g id="text_2">
      <!-- 0.2 -->
      <g transform="translate(156.97942 287.910437)scale(0.1 -0.1)">
       <defs>
        <path d="M 1228 531 
L 3431 531 
L 3431 0 
L 469 0 
L 469 531 
Q 828 903 1448 1529 
Q 2069 2156 2228 2338 
Q 2531 2678 2651 2914 
Q 2772 3150 2772 3378 
Q 2772 3750 2511 3984 
Q 2250 4219 1831 4219 
Q 1534 4219 1204 4116 
Q 875 4013 500 3803 
L 500 4441 
Q 881 4594 1212 4672 
Q 1544 4750 1819 4750 
Q 2544 4750 2975 4387 
Q 3406 4025 3406 3419 
Q 3406 3131 3298 2873 
Q 3191 2616 2906 2266 
Q 2828 2175 2409 1742 
Q 1991 1309 1228 531 
z
" id="DejaVuSans-32" transform="scale(0.015625)"/>
       </defs>
       <use xlink:href="#DejaVuSans-30"/>
       <use x="63.623047" xlink:href="#DejaVuSans-2e"/>
       <use x="95.410156" xlink:href="#DejaVuSans-32"/>
      </g>
     </g>
    </g>
    <g id="xtick_3">
     <g id="line2d_3">
      <g>
       <use style="stroke:#000000;stroke-width:0.8;" x="232.953839" xlink:href="#m098b76172f" y="273.312"/>
      </g>
     </g>
     <g id="text_3">
      <!-- 0.4 -->
      <g transform="translate(225.002277 287.910437)scale(0.1 -0.1)">
       <defs>
        <path d="M 2419 4116 
L 825 1625 
L 2419 1625 
L 2419 4116 
z
M 2253 4666 
L 3047 4666 
L 3047 1625 
L 3713 1625 
L 3713 1100 
L 3047 1100 
L 3047 0 
L 2419 0 
L 2419 1100 
L 313 1100 
L 313 1709 
L 2253 4666 
z
" id="DejaVuSans-34" transform="scale(0.015625)"/>
       </defs>
       <use xlink:href="#DejaVuSans-30"/>
       <use x="63.623047" xlink:href="#DejaVuSans-2e"/>
       <use x="95.410156" xlink:href="#DejaVuSans-34"/>
      </g>
     </g>
    </g>
    <g id="xtick_4">
     <g id="line2d_4">
      <g>
       <use style="stroke:#000000;stroke-width:0.8;" x="300.976696" xlink:href="#m098b76172f" y="273.312"/>
      </g>
     </g>
     <g id="text_4">
      <!-- 0.6 -->
      <g transform="translate(293.025134 287.910437)scale(0.1 -0.1)">
       <defs>
        <path d="M 2113 2584 
Q 1688 2584 1439 2293 
Q 1191 2003 1191 1497 
Q 1191 994 1439 701 
Q 1688 409 2113 409 
Q 2538 409 2786 701 
Q 3034 994 3034 1497 
Q 3034 2003 2786 2293 
Q 2538 2584 2113 2584 
z
M 3366 4563 
L 3366 3988 
Q 3128 4100 2886 4159 
Q 2644 4219 2406 4219 
Q 1781 4219 1451 3797 
Q 1122 3375 1075 2522 
Q 1259 2794 1537 2939 
Q 1816 3084 2150 3084 
Q 2853 3084 3261 2657 
Q 3669 2231 3669 1497 
Q 3669 778 3244 343 
Q 2819 -91 2113 -91 
Q 1303 -91 875 529 
Q 447 1150 447 2328 
Q 447 3434 972 4092 
Q 1497 4750 2381 4750 
Q 2619 4750 2861 4703 
Q 3103 4656 3366 4563 
z
" id="DejaVuSans-36" transform="scale(0.015625)"/>
       </defs>
       <use xlink:href="#DejaVuSans-30"/>
       <use x="63.623047" xlink:href="#DejaVuSans-2e"/>
       <use x="95.410156" xlink:href="#DejaVuSans-36"/>
      </g>
     </g>
    </g>
    <g id="xtick_5">
     <g id="line2d_5">
      <g>
       <use style="stroke:#000000;stroke-width:0.8;" x="368.999554" xlink:href="#m098b76172f" y="273.312"/>
      </g>
     </g>
     <g id="text_5">
      <!-- 0.8 -->
      <g transform="translate(361.047991 287.910437)scale(0.1 -0.1)">
       <defs>
        <path d="M 2034 2216 
Q 1584 2216 1326 1975 
Q 1069 1734 1069 1313 
Q 1069 891 1326 650 
Q 1584 409 2034 409 
Q 2484 409 2743 651 
Q 3003 894 3003 1313 
Q 3003 1734 2745 1975 
Q 2488 2216 2034 2216 
z
M 1403 2484 
Q 997 2584 770 2862 
Q 544 3141 544 3541 
Q 544 4100 942 4425 
Q 1341 4750 2034 4750 
Q 2731 4750 3128 4425 
Q 3525 4100 3525 3541 
Q 3525 3141 3298 2862 
Q 3072 2584 2669 2484 
Q 3125 2378 3379 2068 
Q 3634 1759 3634 1313 
Q 3634 634 3220 271 
Q 2806 -91 2034 -91 
Q 1263 -91 848 271 
Q 434 634 434 1313 
Q 434 1759 690 2068 
Q 947 2378 1403 2484 
z
M 1172 3481 
Q 1172 3119 1398 2916 
Q 1625 2713 2034 2713 
Q 2441 2713 2670 2916 
Q 2900 3119 2900 3481 
Q 2900 3844 2670 4047 
Q 2441 4250 2034 4250 
Q 1625 4250 1398 4047 
Q 1172 3844 1172 3481 
z
" id="DejaVuSans-38" transform="scale(0.015625)"/>
       </defs>
       <use xlink:href="#DejaVuSans-30"/>
       <use x="63.623047" xlink:href="#DejaVuSans-2e"/>
       <use x="95.410156" xlink:href="#DejaVuSans-38"/>
      </g>
     </g>
    </g>
    <g id="xtick_6">
     <g id="line2d_6">
      <g>
       <use style="stroke:#000000;stroke-width:0.8;" x="437.022411" xlink:href="#m098b76172f" y="273.312"/>
      </g>
     </g>
     <g id="text_6">
      <!-- 1.0 -->
      <g transform="translate(429.070848 287.910437)scale(0.1 -0.1)">
       <defs>
        <path d="M 794 531 
L 1825 531 
L 1825 4091 
L 703 3866 
L 703 4441 
L 1819 4666 
L 2450 4666 
L 2450 531 
L 3481 531 
L 3481 0 
L 794 0 
L 794 531 
z
" id="DejaVuSans-31" transform="scale(0.015625)"/>
       </defs>
       <use xlink:href="#DejaVuSans-31"/>
       <use x="63.623047" xlink:href="#DejaVuSans-2e"/>
       <use x="95.410156" xlink:href="#DejaVuSans-30"/>
      </g>
     </g>
    </g>
    <g id="text_7">
     <!-- Accuracy -->
     <g transform="translate(252.64 301.588562)scale(0.1 -0.1)">
      <defs>
       <path d="M 2188 4044 
L 1331 1722 
L 3047 1722 
L 2188 4044 
z
M 1831 4666 
L 2547 4666 
L 4325 0 
L 3669 0 
L 3244 1197 
L 1141 1197 
L 716 0 
L 50 0 
L 1831 4666 
z
" id="DejaVuSans-41" transform="scale(0.015625)"/>
       <path d="M 3122 3366 
L 3122 2828 
Q 2878 2963 2633 3030 
Q 2388 3097 2138 3097 
Q 1578 3097 1268 2742 
Q 959 2388 959 1747 
Q 959 1106 1268 751 
Q 1578 397 2138 397 
Q 2388 397 2633 464 
Q 2878 531 3122 666 
L 3122 134 
Q 2881 22 2623 -34 
Q 2366 -91 2075 -91 
Q 1284 -91 818 406 
Q 353 903 353 1747 
Q 353 2603 823 3093 
Q 1294 3584 2113 3584 
Q 2378 3584 2631 3529 
Q 2884 3475 3122 3366 
z
" id="DejaVuSans-63" transform="scale(0.015625)"/>
       <path d="M 544 1381 
L 544 3500 
L 1119 3500 
L 1119 1403 
Q 1119 906 1312 657 
Q 1506 409 1894 409 
Q 2359 409 2629 706 
Q 2900 1003 2900 1516 
L 2900 3500 
L 3475 3500 
L 3475 0 
L 2900 0 
L 2900 538 
Q 2691 219 2414 64 
Q 2138 -91 1772 -91 
Q 1169 -91 856 284 
Q 544 659 544 1381 
z
M 1991 3584 
L 1991 3584 
z
" id="DejaVuSans-75" transform="scale(0.015625)"/>
       <path d="M 2631 2963 
Q 2534 3019 2420 3045 
Q 2306 3072 2169 3072 
Q 1681 3072 1420 2755 
Q 1159 2438 1159 1844 
L 1159 0 
L 581 0 
L 581 3500 
L 1159 3500 
L 1159 2956 
Q 1341 3275 1631 3429 
Q 1922 3584 2338 3584 
Q 2397 3584 2469 3576 
Q 2541 3569 2628 3553 
L 2631 2963 
z
" id="DejaVuSans-72" transform="scale(0.015625)"/>
       <path d="M 2194 1759 
Q 1497 1759 1228 1600 
Q 959 1441 959 1056 
Q 959 750 1161 570 
Q 1363 391 1709 391 
Q 2188 391 2477 730 
Q 2766 1069 2766 1631 
L 2766 1759 
L 2194 1759 
z
M 3341 1997 
L 3341 0 
L 2766 0 
L 2766 531 
Q 2569 213 2275 61 
Q 1981 -91 1556 -91 
Q 1019 -91 701 211 
Q 384 513 384 1019 
Q 384 1609 779 1909 
Q 1175 2209 1959 2209 
L 2766 2209 
L 2766 2266 
Q 2766 2663 2505 2880 
Q 2244 3097 1772 3097 
Q 1472 3097 1187 3025 
Q 903 2953 641 2809 
L 641 3341 
Q 956 3463 1253 3523 
Q 1550 3584 1831 3584 
Q 2591 3584 2966 3190 
Q 3341 2797 3341 1997 
z
" id="DejaVuSans-61" transform="scale(0.015625)"/>
       <path d="M 2059 -325 
Q 1816 -950 1584 -1140 
Q 1353 -1331 966 -1331 
L 506 -1331 
L 506 -850 
L 844 -850 
Q 1081 -850 1212 -737 
Q 1344 -625 1503 -206 
L 1606 56 
L 191 3500 
L 800 3500 
L 1894 763 
L 2988 3500 
L 3597 3500 
L 2059 -325 
z
" id="DejaVuSans-79" transform="scale(0.015625)"/>
      </defs>
      <use xlink:href="#DejaVuSans-41"/>
      <use x="66.658203" xlink:href="#DejaVuSans-63"/>
      <use x="121.638672" xlink:href="#DejaVuSans-63"/>
      <use x="176.619141" xlink:href="#DejaVuSans-75"/>
      <use x="239.998047" xlink:href="#DejaVuSans-72"/>
      <use x="281.111328" xlink:href="#DejaVuSans-61"/>
      <use x="342.390625" xlink:href="#DejaVuSans-63"/>
      <use x="397.371094" xlink:href="#DejaVuSans-79"/>
     </g>
    </g>
   </g>
   <g id="matplotlib.axis_2">
    <g id="ytick_1">
     <g id="line2d_7">
      <defs>
       <path d="M 0 0 
L -3.5 0 
" id="mf2cf7e2718" style="stroke:#000000;stroke-width:0.8;"/>
      </defs>
      <g>
       <use style="stroke:#000000;stroke-width:0.8;" x="96.908125" xlink:href="#mf2cf7e2718" y="18.288"/>
      </g>
     </g>
     <g id="text_8">
      <!-- dbo:Country -->
      <g transform="translate(40.379375 21.327375)scale(0.08 -0.08)">
       <defs>
        <path d="M 2906 2969 
L 2906 4863 
L 3481 4863 
L 3481 0 
L 2906 0 
L 2906 525 
Q 2725 213 2448 61 
Q 2172 -91 1784 -91 
Q 1150 -91 751 415 
Q 353 922 353 1747 
Q 353 2572 751 3078 
Q 1150 3584 1784 3584 
Q 2172 3584 2448 3432 
Q 2725 3281 2906 2969 
z
M 947 1747 
Q 947 1113 1208 752 
Q 1469 391 1925 391 
Q 2381 391 2643 752 
Q 2906 1113 2906 1747 
Q 2906 2381 2643 2742 
Q 2381 3103 1925 3103 
Q 1469 3103 1208 2742 
Q 947 2381 947 1747 
z
" id="DejaVuSans-64" transform="scale(0.015625)"/>
        <path d="M 3116 1747 
Q 3116 2381 2855 2742 
Q 2594 3103 2138 3103 
Q 1681 3103 1420 2742 
Q 1159 2381 1159 1747 
Q 1159 1113 1420 752 
Q 1681 391 2138 391 
Q 2594 391 2855 752 
Q 3116 1113 3116 1747 
z
M 1159 2969 
Q 1341 3281 1617 3432 
Q 1894 3584 2278 3584 
Q 2916 3584 3314 3078 
Q 3713 2572 3713 1747 
Q 3713 922 3314 415 
Q 2916 -91 2278 -91 
Q 1894 -91 1617 61 
Q 1341 213 1159 525 
L 1159 0 
L 581 0 
L 581 4863 
L 1159 4863 
L 1159 2969 
z
" id="DejaVuSans-62" transform="scale(0.015625)"/>
        <path d="M 1959 3097 
Q 1497 3097 1228 2736 
Q 959 2375 959 1747 
Q 959 1119 1226 758 
Q 1494 397 1959 397 
Q 2419 397 2687 759 
Q 2956 1122 2956 1747 
Q 2956 2369 2687 2733 
Q 2419 3097 1959 3097 
z
M 1959 3584 
Q 2709 3584 3137 3096 
Q 3566 2609 3566 1747 
Q 3566 888 3137 398 
Q 2709 -91 1959 -91 
Q 1206 -91 779 398 
Q 353 888 353 1747 
Q 353 2609 779 3096 
Q 1206 3584 1959 3584 
z
" id="DejaVuSans-6f" transform="scale(0.015625)"/>
        <path d="M 750 794 
L 1409 794 
L 1409 0 
L 750 0 
L 750 794 
z
M 750 3309 
L 1409 3309 
L 1409 2516 
L 750 2516 
L 750 3309 
z
" id="DejaVuSans-3a" transform="scale(0.015625)"/>
        <path d="M 4122 4306 
L 4122 3641 
Q 3803 3938 3442 4084 
Q 3081 4231 2675 4231 
Q 1875 4231 1450 3742 
Q 1025 3253 1025 2328 
Q 1025 1406 1450 917 
Q 1875 428 2675 428 
Q 3081 428 3442 575 
Q 3803 722 4122 1019 
L 4122 359 
Q 3791 134 3420 21 
Q 3050 -91 2638 -91 
Q 1578 -91 968 557 
Q 359 1206 359 2328 
Q 359 3453 968 4101 
Q 1578 4750 2638 4750 
Q 3056 4750 3426 4639 
Q 3797 4528 4122 4306 
z
" id="DejaVuSans-43" transform="scale(0.015625)"/>
        <path d="M 3513 2113 
L 3513 0 
L 2938 0 
L 2938 2094 
Q 2938 2591 2744 2837 
Q 2550 3084 2163 3084 
Q 1697 3084 1428 2787 
Q 1159 2491 1159 1978 
L 1159 0 
L 581 0 
L 581 3500 
L 1159 3500 
L 1159 2956 
Q 1366 3272 1645 3428 
Q 1925 3584 2291 3584 
Q 2894 3584 3203 3211 
Q 3513 2838 3513 2113 
z
" id="DejaVuSans-6e" transform="scale(0.015625)"/>
        <path d="M 1172 4494 
L 1172 3500 
L 2356 3500 
L 2356 3053 
L 1172 3053 
L 1172 1153 
Q 1172 725 1289 603 
Q 1406 481 1766 481 
L 2356 481 
L 2356 0 
L 1766 0 
Q 1100 0 847 248 
Q 594 497 594 1153 
L 594 3053 
L 172 3053 
L 172 3500 
L 594 3500 
L 594 4494 
L 1172 4494 
z
" id="DejaVuSans-74" transform="scale(0.015625)"/>
       </defs>
       <use xlink:href="#DejaVuSans-64"/>
       <use x="63.476562" xlink:href="#DejaVuSans-62"/>
       <use x="126.953125" xlink:href="#DejaVuSans-6f"/>
       <use x="188.134766" xlink:href="#DejaVuSans-3a"/>
       <use x="221.826172" xlink:href="#DejaVuSans-43"/>
       <use x="291.650391" xlink:href="#DejaVuSans-6f"/>
       <use x="352.832031" xlink:href="#DejaVuSans-75"/>
       <use x="416.210938" xlink:href="#DejaVuSans-6e"/>
       <use x="479.589844" xlink:href="#DejaVuSans-74"/>
       <use x="518.798828" xlink:href="#DejaVuSans-72"/>
       <use x="559.912109" xlink:href="#DejaVuSans-79"/>
      </g>
     </g>
    </g>
    <g id="ytick_2">
     <g id="line2d_8">
      <g>
       <use style="stroke:#000000;stroke-width:0.8;" x="96.908125" xlink:href="#mf2cf7e2718" y="40.464"/>
      </g>
     </g>
     <g id="text_9">
      <!-- dbo:Bird -->
      <g transform="translate(56.221875 43.503375)scale(0.08 -0.08)">
       <defs>
        <path d="M 1259 2228 
L 1259 519 
L 2272 519 
Q 2781 519 3026 730 
Q 3272 941 3272 1375 
Q 3272 1813 3026 2020 
Q 2781 2228 2272 2228 
L 1259 2228 
z
M 1259 4147 
L 1259 2741 
L 2194 2741 
Q 2656 2741 2882 2914 
Q 3109 3088 3109 3444 
Q 3109 3797 2882 3972 
Q 2656 4147 2194 4147 
L 1259 4147 
z
M 628 4666 
L 2241 4666 
Q 2963 4666 3353 4366 
Q 3744 4066 3744 3513 
Q 3744 3084 3544 2831 
Q 3344 2578 2956 2516 
Q 3422 2416 3680 2098 
Q 3938 1781 3938 1306 
Q 3938 681 3513 340 
Q 3088 0 2303 0 
L 628 0 
L 628 4666 
z
" id="DejaVuSans-42" transform="scale(0.015625)"/>
        <path d="M 603 3500 
L 1178 3500 
L 1178 0 
L 603 0 
L 603 3500 
z
M 603 4863 
L 1178 4863 
L 1178 4134 
L 603 4134 
L 603 4863 
z
" id="DejaVuSans-69" transform="scale(0.015625)"/>
       </defs>
       <use xlink:href="#DejaVuSans-64"/>
       <use x="63.476562" xlink:href="#DejaVuSans-62"/>
       <use x="126.953125" xlink:href="#DejaVuSans-6f"/>
       <use x="188.134766" xlink:href="#DejaVuSans-3a"/>
       <use x="221.826172" xlink:href="#DejaVuSans-42"/>
       <use x="290.429688" xlink:href="#DejaVuSans-69"/>
       <use x="318.212891" xlink:href="#DejaVuSans-72"/>
       <use x="357.576172" xlink:href="#DejaVuSans-64"/>
      </g>
     </g>
    </g>
    <g id="ytick_3">
     <g id="line2d_9">
      <g>
       <use style="stroke:#000000;stroke-width:0.8;" x="96.908125" xlink:href="#mf2cf7e2718" y="62.64"/>
      </g>
     </g>
     <g id="text_10">
      <!-- dbo:Company -->
      <g transform="translate(34.100625 65.679375)scale(0.08 -0.08)">
       <defs>
        <path d="M 3328 2828 
Q 3544 3216 3844 3400 
Q 4144 3584 4550 3584 
Q 5097 3584 5394 3201 
Q 5691 2819 5691 2113 
L 5691 0 
L 5113 0 
L 5113 2094 
Q 5113 2597 4934 2840 
Q 4756 3084 4391 3084 
Q 3944 3084 3684 2787 
Q 3425 2491 3425 1978 
L 3425 0 
L 2847 0 
L 2847 2094 
Q 2847 2600 2669 2842 
Q 2491 3084 2119 3084 
Q 1678 3084 1418 2786 
Q 1159 2488 1159 1978 
L 1159 0 
L 581 0 
L 581 3500 
L 1159 3500 
L 1159 2956 
Q 1356 3278 1631 3431 
Q 1906 3584 2284 3584 
Q 2666 3584 2933 3390 
Q 3200 3197 3328 2828 
z
" id="DejaVuSans-6d" transform="scale(0.015625)"/>
        <path d="M 1159 525 
L 1159 -1331 
L 581 -1331 
L 581 3500 
L 1159 3500 
L 1159 2969 
Q 1341 3281 1617 3432 
Q 1894 3584 2278 3584 
Q 2916 3584 3314 3078 
Q 3713 2572 3713 1747 
Q 3713 922 3314 415 
Q 2916 -91 2278 -91 
Q 1894 -91 1617 61 
Q 1341 213 1159 525 
z
M 3116 1747 
Q 3116 2381 2855 2742 
Q 2594 3103 2138 3103 
Q 1681 3103 1420 2742 
Q 1159 2381 1159 1747 
Q 1159 1113 1420 752 
Q 1681 391 2138 391 
Q 2594 391 2855 752 
Q 3116 1113 3116 1747 
z
" id="DejaVuSans-70" transform="scale(0.015625)"/>
       </defs>
       <use xlink:href="#DejaVuSans-64"/>
       <use x="63.476562" xlink:href="#DejaVuSans-62"/>
       <use x="126.953125" xlink:href="#DejaVuSans-6f"/>
       <use x="188.134766" xlink:href="#DejaVuSans-3a"/>
       <use x="221.826172" xlink:href="#DejaVuSans-43"/>
       <use x="291.650391" xlink:href="#DejaVuSans-6f"/>
       <use x="352.832031" xlink:href="#DejaVuSans-6d"/>
       <use x="450.244141" xlink:href="#DejaVuSans-70"/>
       <use x="513.720703" xlink:href="#DejaVuSans-61"/>
       <use x="575" xlink:href="#DejaVuSans-6e"/>
       <use x="638.378906" xlink:href="#DejaVuSans-79"/>
      </g>
     </g>
    </g>
    <g id="ytick_4">
     <g id="line2d_10">
      <g>
       <use style="stroke:#000000;stroke-width:0.8;" x="96.908125" xlink:href="#mf2cf7e2718" y="84.816"/>
      </g>
     </g>
     <g id="text_11">
      <!-- dbo:Saint -->
      <g transform="translate(51.750625 87.855375)scale(0.08 -0.08)">
       <defs>
        <path d="M 3425 4513 
L 3425 3897 
Q 3066 4069 2747 4153 
Q 2428 4238 2131 4238 
Q 1616 4238 1336 4038 
Q 1056 3838 1056 3469 
Q 1056 3159 1242 3001 
Q 1428 2844 1947 2747 
L 2328 2669 
Q 3034 2534 3370 2195 
Q 3706 1856 3706 1288 
Q 3706 609 3251 259 
Q 2797 -91 1919 -91 
Q 1588 -91 1214 -16 
Q 841 59 441 206 
L 441 856 
Q 825 641 1194 531 
Q 1563 422 1919 422 
Q 2459 422 2753 634 
Q 3047 847 3047 1241 
Q 3047 1584 2836 1778 
Q 2625 1972 2144 2069 
L 1759 2144 
Q 1053 2284 737 2584 
Q 422 2884 422 3419 
Q 422 4038 858 4394 
Q 1294 4750 2059 4750 
Q 2388 4750 2728 4690 
Q 3069 4631 3425 4513 
z
" id="DejaVuSans-53" transform="scale(0.015625)"/>
       </defs>
       <use xlink:href="#DejaVuSans-64"/>
       <use x="63.476562" xlink:href="#DejaVuSans-62"/>
       <use x="126.953125" xlink:href="#DejaVuSans-6f"/>
       <use x="188.134766" xlink:href="#DejaVuSans-3a"/>
       <use x="221.826172" xlink:href="#DejaVuSans-53"/>
       <use x="285.302734" xlink:href="#DejaVuSans-61"/>
       <use x="346.582031" xlink:href="#DejaVuSans-69"/>
       <use x="374.365234" xlink:href="#DejaVuSans-6e"/>
       <use x="437.744141" xlink:href="#DejaVuSans-74"/>
      </g>
     </g>
    </g>
    <g id="ytick_5">
     <g id="line2d_11">
      <g>
       <use style="stroke:#000000;stroke-width:0.8;" x="96.908125" xlink:href="#mf2cf7e2718" y="106.992"/>
      </g>
     </g>
     <g id="text_12">
      <!-- dbo:VideoGame -->
      <g transform="translate(25.933125 110.031375)scale(0.08 -0.08)">
       <defs>
        <path d="M 1831 0 
L 50 4666 
L 709 4666 
L 2188 738 
L 3669 4666 
L 4325 4666 
L 2547 0 
L 1831 0 
z
" id="DejaVuSans-56" transform="scale(0.015625)"/>
        <path d="M 3597 1894 
L 3597 1613 
L 953 1613 
Q 991 1019 1311 708 
Q 1631 397 2203 397 
Q 2534 397 2845 478 
Q 3156 559 3463 722 
L 3463 178 
Q 3153 47 2828 -22 
Q 2503 -91 2169 -91 
Q 1331 -91 842 396 
Q 353 884 353 1716 
Q 353 2575 817 3079 
Q 1281 3584 2069 3584 
Q 2775 3584 3186 3129 
Q 3597 2675 3597 1894 
z
M 3022 2063 
Q 3016 2534 2758 2815 
Q 2500 3097 2075 3097 
Q 1594 3097 1305 2825 
Q 1016 2553 972 2059 
L 3022 2063 
z
" id="DejaVuSans-65" transform="scale(0.015625)"/>
        <path d="M 3809 666 
L 3809 1919 
L 2778 1919 
L 2778 2438 
L 4434 2438 
L 4434 434 
Q 4069 175 3628 42 
Q 3188 -91 2688 -91 
Q 1594 -91 976 548 
Q 359 1188 359 2328 
Q 359 3472 976 4111 
Q 1594 4750 2688 4750 
Q 3144 4750 3555 4637 
Q 3966 4525 4313 4306 
L 4313 3634 
Q 3963 3931 3569 4081 
Q 3175 4231 2741 4231 
Q 1884 4231 1454 3753 
Q 1025 3275 1025 2328 
Q 1025 1384 1454 906 
Q 1884 428 2741 428 
Q 3075 428 3337 486 
Q 3600 544 3809 666 
z
" id="DejaVuSans-47" transform="scale(0.015625)"/>
       </defs>
       <use xlink:href="#DejaVuSans-64"/>
       <use x="63.476562" xlink:href="#DejaVuSans-62"/>
       <use x="126.953125" xlink:href="#DejaVuSans-6f"/>
       <use x="188.134766" xlink:href="#DejaVuSans-3a"/>
       <use x="221.826172" xlink:href="#DejaVuSans-56"/>
       <use x="287.984375" xlink:href="#DejaVuSans-69"/>
       <use x="315.767578" xlink:href="#DejaVuSans-64"/>
       <use x="379.244141" xlink:href="#DejaVuSans-65"/>
       <use x="440.767578" xlink:href="#DejaVuSans-6f"/>
       <use x="501.949219" xlink:href="#DejaVuSans-47"/>
       <use x="579.439453" xlink:href="#DejaVuSans-61"/>
       <use x="640.71875" xlink:href="#DejaVuSans-6d"/>
       <use x="738.130859" xlink:href="#DejaVuSans-65"/>
      </g>
     </g>
    </g>
    <g id="ytick_6">
     <g id="line2d_12">
      <g>
       <use style="stroke:#000000;stroke-width:0.8;" x="96.908125" xlink:href="#mf2cf7e2718" y="129.168"/>
      </g>
     </g>
     <g id="text_13">
      <!-- dbo:Airline -->
      <g transform="translate(46.739375 132.207375)scale(0.08 -0.08)">
       <defs>
        <path d="M 603 4863 
L 1178 4863 
L 1178 0 
L 603 0 
L 603 4863 
z
" id="DejaVuSans-6c" transform="scale(0.015625)"/>
       </defs>
       <use xlink:href="#DejaVuSans-64"/>
       <use x="63.476562" xlink:href="#DejaVuSans-62"/>
       <use x="126.953125" xlink:href="#DejaVuSans-6f"/>
       <use x="188.134766" xlink:href="#DejaVuSans-3a"/>
       <use x="221.826172" xlink:href="#DejaVuSans-41"/>
       <use x="290.234375" xlink:href="#DejaVuSans-69"/>
       <use x="318.017578" xlink:href="#DejaVuSans-72"/>
       <use x="359.130859" xlink:href="#DejaVuSans-6c"/>
       <use x="386.914062" xlink:href="#DejaVuSans-69"/>
       <use x="414.697266" xlink:href="#DejaVuSans-6e"/>
       <use x="478.076172" xlink:href="#DejaVuSans-65"/>
      </g>
     </g>
    </g>
    <g id="ytick_7">
     <g id="line2d_13">
      <g>
       <use style="stroke:#000000;stroke-width:0.8;" x="96.908125" xlink:href="#mf2cf7e2718" y="151.344"/>
      </g>
     </g>
     <g id="text_14">
      <!-- dbo:City -->
      <g transform="translate(56.480625 154.383375)scale(0.08 -0.08)">
       <use xlink:href="#DejaVuSans-64"/>
       <use x="63.476562" xlink:href="#DejaVuSans-62"/>
       <use x="126.953125" xlink:href="#DejaVuSans-6f"/>
       <use x="188.134766" xlink:href="#DejaVuSans-3a"/>
       <use x="221.826172" xlink:href="#DejaVuSans-43"/>
       <use x="291.650391" xlink:href="#DejaVuSans-69"/>
       <use x="319.433594" xlink:href="#DejaVuSans-74"/>
       <use x="358.642578" xlink:href="#DejaVuSans-79"/>
      </g>
     </g>
    </g>
    <g id="ytick_8">
     <g id="line2d_14">
      <g>
       <use style="stroke:#000000;stroke-width:0.8;" x="96.908125" xlink:href="#mf2cf7e2718" y="173.52"/>
      </g>
     </g>
     <g id="text_15">
      <!-- dbo:Animal -->
      <g transform="translate(44.478125 176.559375)scale(0.08 -0.08)">
       <use xlink:href="#DejaVuSans-64"/>
       <use x="63.476562" xlink:href="#DejaVuSans-62"/>
       <use x="126.953125" xlink:href="#DejaVuSans-6f"/>
       <use x="188.134766" xlink:href="#DejaVuSans-3a"/>
       <use x="221.826172" xlink:href="#DejaVuSans-41"/>
       <use x="290.234375" xlink:href="#DejaVuSans-6e"/>
       <use x="353.613281" xlink:href="#DejaVuSans-69"/>
       <use x="381.396484" xlink:href="#DejaVuSans-6d"/>
       <use x="478.808594" xlink:href="#DejaVuSans-61"/>
       <use x="540.087891" xlink:href="#DejaVuSans-6c"/>
      </g>
     </g>
    </g>
    <g id="ytick_9">
     <g id="line2d_15">
      <g>
       <use style="stroke:#000000;stroke-width:0.8;" x="96.908125" xlink:href="#mf2cf7e2718" y="195.696"/>
      </g>
     </g>
     <g id="text_16">
      <!-- dbo:PoliticalParty -->
      <g transform="translate(20.878125 198.735375)scale(0.08 -0.08)">
       <defs>
        <path d="M 1259 4147 
L 1259 2394 
L 2053 2394 
Q 2494 2394 2734 2622 
Q 2975 2850 2975 3272 
Q 2975 3691 2734 3919 
Q 2494 4147 2053 4147 
L 1259 4147 
z
M 628 4666 
L 2053 4666 
Q 2838 4666 3239 4311 
Q 3641 3956 3641 3272 
Q 3641 2581 3239 2228 
Q 2838 1875 2053 1875 
L 1259 1875 
L 1259 0 
L 628 0 
L 628 4666 
z
" id="DejaVuSans-50" transform="scale(0.015625)"/>
       </defs>
       <use xlink:href="#DejaVuSans-64"/>
       <use x="63.476562" xlink:href="#DejaVuSans-62"/>
       <use x="126.953125" xlink:href="#DejaVuSans-6f"/>
       <use x="188.134766" xlink:href="#DejaVuSans-3a"/>
       <use x="221.826172" xlink:href="#DejaVuSans-50"/>
       <use x="278.503906" xlink:href="#DejaVuSans-6f"/>
       <use x="339.685547" xlink:href="#DejaVuSans-6c"/>
       <use x="367.46875" xlink:href="#DejaVuSans-69"/>
       <use x="395.251953" xlink:href="#DejaVuSans-74"/>
       <use x="434.460938" xlink:href="#DejaVuSans-69"/>
       <use x="462.244141" xlink:href="#DejaVuSans-63"/>
       <use x="517.224609" xlink:href="#DejaVuSans-61"/>
       <use x="578.503906" xlink:href="#DejaVuSans-6c"/>
       <use x="606.287109" xlink:href="#DejaVuSans-50"/>
       <use x="662.089844" xlink:href="#DejaVuSans-61"/>
       <use x="723.369141" xlink:href="#DejaVuSans-72"/>
       <use x="764.482422" xlink:href="#DejaVuSans-74"/>
       <use x="803.691406" xlink:href="#DejaVuSans-79"/>
      </g>
     </g>
    </g>
    <g id="ytick_10">
     <g id="line2d_16">
      <g>
       <use style="stroke:#000000;stroke-width:0.8;" x="96.908125" xlink:href="#mf2cf7e2718" y="217.872"/>
      </g>
     </g>
     <g id="text_17">
      <!-- dbo:Plant -->
      <g transform="translate(52.005625 220.911375)scale(0.08 -0.08)">
       <use xlink:href="#DejaVuSans-64"/>
       <use x="63.476562" xlink:href="#DejaVuSans-62"/>
       <use x="126.953125" xlink:href="#DejaVuSans-6f"/>
       <use x="188.134766" xlink:href="#DejaVuSans-3a"/>
       <use x="221.826172" xlink:href="#DejaVuSans-50"/>
       <use x="282.128906" xlink:href="#DejaVuSans-6c"/>
       <use x="309.912109" xlink:href="#DejaVuSans-61"/>
       <use x="371.191406" xlink:href="#DejaVuSans-6e"/>
       <use x="434.570312" xlink:href="#DejaVuSans-74"/>
      </g>
     </g>
    </g>
    <g id="ytick_11">
     <g id="line2d_17">
      <g>
       <use style="stroke:#000000;stroke-width:0.8;" x="96.908125" xlink:href="#mf2cf7e2718" y="240.048"/>
      </g>
     </g>
     <g id="text_18">
      <!-- dbo:Museum -->
      <g transform="translate(38.235625 243.087375)scale(0.08 -0.08)">
       <defs>
        <path d="M 628 4666 
L 1569 4666 
L 2759 1491 
L 3956 4666 
L 4897 4666 
L 4897 0 
L 4281 0 
L 4281 4097 
L 3078 897 
L 2444 897 
L 1241 4097 
L 1241 0 
L 628 0 
L 628 4666 
z
" id="DejaVuSans-4d" transform="scale(0.015625)"/>
        <path d="M 2834 3397 
L 2834 2853 
Q 2591 2978 2328 3040 
Q 2066 3103 1784 3103 
Q 1356 3103 1142 2972 
Q 928 2841 928 2578 
Q 928 2378 1081 2264 
Q 1234 2150 1697 2047 
L 1894 2003 
Q 2506 1872 2764 1633 
Q 3022 1394 3022 966 
Q 3022 478 2636 193 
Q 2250 -91 1575 -91 
Q 1294 -91 989 -36 
Q 684 19 347 128 
L 347 722 
Q 666 556 975 473 
Q 1284 391 1588 391 
Q 1994 391 2212 530 
Q 2431 669 2431 922 
Q 2431 1156 2273 1281 
Q 2116 1406 1581 1522 
L 1381 1569 
Q 847 1681 609 1914 
Q 372 2147 372 2553 
Q 372 3047 722 3315 
Q 1072 3584 1716 3584 
Q 2034 3584 2315 3537 
Q 2597 3491 2834 3397 
z
" id="DejaVuSans-73" transform="scale(0.015625)"/>
       </defs>
       <use xlink:href="#DejaVuSans-64"/>
       <use x="63.476562" xlink:href="#DejaVuSans-62"/>
       <use x="126.953125" xlink:href="#DejaVuSans-6f"/>
       <use x="188.134766" xlink:href="#DejaVuSans-3a"/>
       <use x="221.826172" xlink:href="#DejaVuSans-4d"/>
       <use x="308.105469" xlink:href="#DejaVuSans-75"/>
       <use x="371.484375" xlink:href="#DejaVuSans-73"/>
       <use x="423.583984" xlink:href="#DejaVuSans-65"/>
       <use x="485.107422" xlink:href="#DejaVuSans-75"/>
       <use x="548.486328" xlink:href="#DejaVuSans-6d"/>
      </g>
     </g>
    </g>
    <g id="ytick_12">
     <g id="line2d_18">
      <g>
       <use style="stroke:#000000;stroke-width:0.8;" x="96.908125" xlink:href="#mf2cf7e2718" y="262.224"/>
      </g>
     </g>
     <g id="text_19">
      <!-- dbo:Book -->
      <g transform="translate(52.249375 265.263375)scale(0.08 -0.08)">
       <defs>
        <path d="M 581 4863 
L 1159 4863 
L 1159 1991 
L 2875 3500 
L 3609 3500 
L 1753 1863 
L 3688 0 
L 2938 0 
L 1159 1709 
L 1159 0 
L 581 0 
L 581 4863 
z
" id="DejaVuSans-6b" transform="scale(0.015625)"/>
       </defs>
       <use xlink:href="#DejaVuSans-64"/>
       <use x="63.476562" xlink:href="#DejaVuSans-62"/>
       <use x="126.953125" xlink:href="#DejaVuSans-6f"/>
       <use x="188.134766" xlink:href="#DejaVuSans-3a"/>
       <use x="221.826172" xlink:href="#DejaVuSans-42"/>
       <use x="290.429688" xlink:href="#DejaVuSans-6f"/>
       <use x="351.611328" xlink:href="#DejaVuSans-6f"/>
       <use x="412.792969" xlink:href="#DejaVuSans-6b"/>
      </g>
     </g>
    </g>
    <g id="text_20">
     <!-- Class -->
     <g transform="translate(14.798437 153.409906)rotate(-90)scale(0.1 -0.1)">
      <use xlink:href="#DejaVuSans-43"/>
      <use x="69.824219" xlink:href="#DejaVuSans-6c"/>
      <use x="97.607422" xlink:href="#DejaVuSans-61"/>
      <use x="158.886719" xlink:href="#DejaVuSans-73"/>
      <use x="210.986328" xlink:href="#DejaVuSans-73"/>
     </g>
    </g>
   </g>
   <g id="line2d_19">
    <path clip-path="url(#ped75d86283)" style="fill:none;stroke:#000000;stroke-linecap:square;stroke-width:2.7;"/>
   </g>
   <g id="line2d_20">
    <path clip-path="url(#ped75d86283)" style="fill:none;stroke:#000000;stroke-linecap:square;stroke-width:2.7;"/>
   </g>
   <g id="line2d_21">
    <path clip-path="url(#ped75d86283)" style="fill:none;stroke:#000000;stroke-linecap:square;stroke-width:2.7;"/>
   </g>
   <g id="line2d_22">
    <path clip-path="url(#ped75d86283)" style="fill:none;stroke:#000000;stroke-linecap:square;stroke-width:2.7;"/>
   </g>
   <g id="line2d_23">
    <path clip-path="url(#ped75d86283)" style="fill:none;stroke:#000000;stroke-linecap:square;stroke-width:2.7;"/>
   </g>
   <g id="line2d_24">
    <path clip-path="url(#ped75d86283)" style="fill:none;stroke:#000000;stroke-linecap:square;stroke-width:2.7;"/>
   </g>
   <g id="line2d_25">
    <path clip-path="url(#ped75d86283)" style="fill:none;stroke:#000000;stroke-linecap:square;stroke-width:2.7;"/>
   </g>
   <g id="line2d_26">
    <path clip-path="url(#ped75d86283)" style="fill:none;stroke:#000000;stroke-linecap:square;stroke-width:2.7;"/>
   </g>
   <g id="line2d_27">
    <path clip-path="url(#ped75d86283)" style="fill:none;stroke:#000000;stroke-linecap:square;stroke-width:2.7;"/>
   </g>
   <g id="line2d_28">
    <path clip-path="url(#ped75d86283)" style="fill:none;stroke:#000000;stroke-linecap:square;stroke-width:2.7;"/>
   </g>
   <g id="line2d_29">
    <path clip-path="url(#ped75d86283)" style="fill:none;stroke:#000000;stroke-linecap:square;stroke-width:2.7;"/>
   </g>
   <g id="line2d_30">
    <path clip-path="url(#ped75d86283)" style="fill:none;stroke:#000000;stroke-linecap:square;stroke-width:2.7;"/>
   </g>
   <g id="line2d_31">
    <path clip-path="url(#ped75d86283)" style="fill:none;stroke:#000000;stroke-linecap:square;stroke-width:2.7;"/>
   </g>
   <g id="line2d_32">
    <path clip-path="url(#ped75d86283)" style="fill:none;stroke:#000000;stroke-linecap:square;stroke-width:2.7;"/>
   </g>
   <g id="line2d_33">
    <path clip-path="url(#ped75d86283)" style="fill:none;stroke:#000000;stroke-linecap:square;stroke-width:2.7;"/>
   </g>
   <g id="line2d_34">
    <path clip-path="url(#ped75d86283)" style="fill:none;stroke:#000000;stroke-linecap:square;stroke-width:2.7;"/>
   </g>
   <g id="line2d_35">
    <path clip-path="url(#ped75d86283)" style="fill:none;stroke:#000000;stroke-linecap:square;stroke-width:2.7;"/>
   </g>
   <g id="line2d_36">
    <path clip-path="url(#ped75d86283)" style="fill:none;stroke:#000000;stroke-linecap:square;stroke-width:2.7;"/>
   </g>
   <g id="line2d_37">
    <path clip-path="url(#ped75d86283)" style="fill:none;stroke:#000000;stroke-linecap:square;stroke-width:2.7;"/>
   </g>
   <g id="line2d_38">
    <path clip-path="url(#ped75d86283)" style="fill:none;stroke:#000000;stroke-linecap:square;stroke-width:2.7;"/>
   </g>
   <g id="line2d_39">
    <path clip-path="url(#ped75d86283)" style="fill:none;stroke:#000000;stroke-linecap:square;stroke-width:2.7;"/>
   </g>
   <g id="line2d_40">
    <path clip-path="url(#ped75d86283)" style="fill:none;stroke:#000000;stroke-linecap:square;stroke-width:2.7;"/>
   </g>
   <g id="line2d_41">
    <path clip-path="url(#ped75d86283)" style="fill:none;stroke:#000000;stroke-linecap:square;stroke-width:2.7;"/>
   </g>
   <g id="line2d_42">
    <path clip-path="url(#ped75d86283)" style="fill:none;stroke:#000000;stroke-linecap:square;stroke-width:2.7;"/>
   </g>
   <g id="patch_27">
    <path d="M 96.908125 273.312 
L 96.908125 7.2 
" style="fill:none;stroke:#000000;stroke-linecap:square;stroke-linejoin:miter;stroke-width:0.8;"/>
   </g>
   <g id="patch_28">
    <path d="M 454.028125 273.312 
L 454.028125 7.2 
" style="fill:none;stroke:#000000;stroke-linecap:square;stroke-linejoin:miter;stroke-width:0.8;"/>
   </g>
   <g id="patch_29">
    <path d="M 96.908125 273.312 
L 454.028125 273.312 
" style="fill:none;stroke:#000000;stroke-linecap:square;stroke-linejoin:miter;stroke-width:0.8;"/>
   </g>
   <g id="patch_30">
    <path d="M 96.908125 7.2 
L 454.028125 7.2 
" style="fill:none;stroke:#000000;stroke-linecap:square;stroke-linejoin:miter;stroke-width:0.8;"/>
   </g>
   <g id="legend_1">
    <g id="patch_31">
     <path d="M 382.542188 332.27945 
L 452.028125 332.27945 
Q 454.028125 332.27945 454.028125 330.27945 
L 454.028125 301.9232 
Q 454.028125 299.9232 452.028125 299.9232 
L 382.542188 299.9232 
Q 380.542188 299.9232 380.542188 301.9232 
L 380.542188 330.27945 
Q 380.542188 332.27945 382.542188 332.27945 
z
" style="fill:#ffffff;opacity:0.8;stroke:#cccccc;stroke-linejoin:miter;"/>
    </g>
    <g id="patch_32">
     <path d="M 384.542188 311.521637 
L 404.542188 311.521637 
L 404.542188 304.521637 
L 384.542188 304.521637 
z
" style="fill:#aeccdb;"/>
    </g>
    <g id="text_21">
     <!-- mean -->
     <g transform="translate(412.542188 311.521637)scale(0.1 -0.1)">
      <use xlink:href="#DejaVuSans-6d"/>
      <use x="97.412109" xlink:href="#DejaVuSans-65"/>
      <use x="158.935547" xlink:href="#DejaVuSans-61"/>
      <use x="220.214844" xlink:href="#DejaVuSans-6e"/>
     </g>
    </g>
    <g id="patch_33">
     <path d="M 384.542188 326.199762 
L 404.542188 326.199762 
L 404.542188 319.199762 
L 384.542188 319.199762 
z
" style="fill:#3274a1;"/>
    </g>
    <g id="text_22">
     <!-- median -->
     <g transform="translate(412.542188 326.199762)scale(0.1 -0.1)">
      <use xlink:href="#DejaVuSans-6d"/>
      <use x="97.412109" xlink:href="#DejaVuSans-65"/>
      <use x="158.935547" xlink:href="#DejaVuSans-64"/>
      <use x="222.412109" xlink:href="#DejaVuSans-69"/>
      <use x="250.195312" xlink:href="#DejaVuSans-61"/>
      <use x="311.474609" xlink:href="#DejaVuSans-6e"/>
     </g>
    </g>
   </g>
  </g>
 </g>
 <defs>
  <clipPath id="ped75d86283">
   <rect height="266.112" width="357.12" x="96.908125" y="7.2"/>
  </clipPath>
 </defs>
</svg>
