<?xml version="1.0" encoding="utf-8" standalone="no"?>
<!DOCTYPE svg PUBLIC "-//W3C//DTD SVG 1.1//EN"
  "http://www.w3.org/Graphics/SVG/1.1/DTD/svg11.dtd">
<svg height="934.76725pt" version="1.1" viewBox="0 0 762.438125 934.76725" width="762.438125pt" xmlns="http://www.w3.org/2000/svg" xmlns:xlink="http://www.w3.org/1999/xlink">
 <metadata>
  <rdf:RDF xmlns:cc="http://creativecommons.org/ns#" xmlns:dc="http://purl.org/dc/elements/1.1/" xmlns:rdf="http://www.w3.org/1999/02/22-rdf-syntax-ns#">
   <cc:Work>
    <dc:type rdf:resource="http://purl.org/dc/dcmitype/StillImage"/>
    <dc:date>2021-10-20T10:38:55.624798</dc:date>
    <dc:format>image/svg+xml</dc:format>
    <dc:creator>
     <cc:Agent>
      <dc:title>Matplotlib v3.4.3, https://matplotlib.org/</dc:title>
     </cc:Agent>
    </dc:creator>
   </cc:Work>
  </rdf:RDF>
 </metadata>
 <defs>
  <style type="text/css">*{stroke-linecap:butt;stroke-linejoin:round;}</style>
 </defs>
 <g id="figure_1">
  <g id="patch_1">
   <path d="M 0 934.76725 
L 762.438125 934.76725 
L 762.438125 -0 
L 0 -0 
z
" style="fill:#ffffff;"/>
  </g>
  <g id="axes_1">
   <g id="patch_2">
    <path d="M 102.378125 783.36 
L 755.238125 783.36 
L 755.238125 7.2 
L 102.378125 7.2 
z
" style="fill:#ffffff;"/>
   </g>
   <g id="matplotlib.axis_1">
    <g id="xtick_1">
     <g id="text_1">
      <!-- 0.0 -->
      <g style="fill:#262626;" transform="translate(94.733125 800.733594)scale(0.11 -0.11)">
       <defs>
        <path d="M 266 2259 
Q 266 3072 433 3567 
Q 600 4063 929 4331 
Q 1259 4600 1759 4600 
Q 2128 4600 2406 4451 
Q 2684 4303 2865 4023 
Q 3047 3744 3150 3342 
Q 3253 2941 3253 2259 
Q 3253 1453 3087 958 
Q 2922 463 2592 192 
Q 2263 -78 1759 -78 
Q 1097 -78 719 397 
Q 266 969 266 2259 
z
M 844 2259 
Q 844 1131 1108 757 
Q 1372 384 1759 384 
Q 2147 384 2411 759 
Q 2675 1134 2675 2259 
Q 2675 3391 2411 3762 
Q 2147 4134 1753 4134 
Q 1366 4134 1134 3806 
Q 844 3388 844 2259 
z
" id="ArialMT-30" transform="scale(0.015625)"/>
        <path d="M 581 0 
L 581 641 
L 1222 641 
L 1222 0 
L 581 0 
z
" id="ArialMT-2e" transform="scale(0.015625)"/>
       </defs>
       <use xlink:href="#ArialMT-30"/>
       <use x="55.615234" xlink:href="#ArialMT-2e"/>
       <use x="83.398438" xlink:href="#ArialMT-30"/>
      </g>
     </g>
    </g>
    <g id="xtick_2">
     <g id="text_2">
      <!-- 0.1 -->
      <g style="fill:#262626;" transform="translate(179.907293 800.733594)scale(0.11 -0.11)">
       <defs>
        <path d="M 2384 0 
L 1822 0 
L 1822 3584 
Q 1619 3391 1289 3197 
Q 959 3003 697 2906 
L 697 3450 
Q 1169 3672 1522 3987 
Q 1875 4303 2022 4600 
L 2384 4600 
L 2384 0 
z
" id="ArialMT-31" transform="scale(0.015625)"/>
       </defs>
       <use xlink:href="#ArialMT-30"/>
       <use x="55.615234" xlink:href="#ArialMT-2e"/>
       <use x="83.398438" xlink:href="#ArialMT-31"/>
      </g>
     </g>
    </g>
    <g id="xtick_3">
     <g id="text_3">
      <!-- 0.2 -->
      <g style="fill:#262626;" transform="translate(265.081462 800.733594)scale(0.11 -0.11)">
       <defs>
        <path d="M 3222 541 
L 3222 0 
L 194 0 
Q 188 203 259 391 
Q 375 700 629 1000 
Q 884 1300 1366 1694 
Q 2113 2306 2375 2664 
Q 2638 3022 2638 3341 
Q 2638 3675 2398 3904 
Q 2159 4134 1775 4134 
Q 1369 4134 1125 3890 
Q 881 3647 878 3216 
L 300 3275 
Q 359 3922 746 4261 
Q 1134 4600 1788 4600 
Q 2447 4600 2831 4234 
Q 3216 3869 3216 3328 
Q 3216 3053 3103 2787 
Q 2991 2522 2730 2228 
Q 2469 1934 1863 1422 
Q 1356 997 1212 845 
Q 1069 694 975 541 
L 3222 541 
z
" id="ArialMT-32" transform="scale(0.015625)"/>
       </defs>
       <use xlink:href="#ArialMT-30"/>
       <use x="55.615234" xlink:href="#ArialMT-2e"/>
       <use x="83.398438" xlink:href="#ArialMT-32"/>
      </g>
     </g>
    </g>
    <g id="xtick_4">
     <g id="text_4">
      <!-- 0.3 -->
      <g style="fill:#262626;" transform="translate(350.25563 800.733594)scale(0.11 -0.11)">
       <defs>
        <path d="M 269 1209 
L 831 1284 
Q 928 806 1161 595 
Q 1394 384 1728 384 
Q 2125 384 2398 659 
Q 2672 934 2672 1341 
Q 2672 1728 2419 1979 
Q 2166 2231 1775 2231 
Q 1616 2231 1378 2169 
L 1441 2663 
Q 1497 2656 1531 2656 
Q 1891 2656 2178 2843 
Q 2466 3031 2466 3422 
Q 2466 3731 2256 3934 
Q 2047 4138 1716 4138 
Q 1388 4138 1169 3931 
Q 950 3725 888 3313 
L 325 3413 
Q 428 3978 793 4289 
Q 1159 4600 1703 4600 
Q 2078 4600 2393 4439 
Q 2709 4278 2876 4000 
Q 3044 3722 3044 3409 
Q 3044 3113 2884 2869 
Q 2725 2625 2413 2481 
Q 2819 2388 3044 2092 
Q 3269 1797 3269 1353 
Q 3269 753 2831 336 
Q 2394 -81 1725 -81 
Q 1122 -81 723 278 
Q 325 638 269 1209 
z
" id="ArialMT-33" transform="scale(0.015625)"/>
       </defs>
       <use xlink:href="#ArialMT-30"/>
       <use x="55.615234" xlink:href="#ArialMT-2e"/>
       <use x="83.398438" xlink:href="#ArialMT-33"/>
      </g>
     </g>
    </g>
    <g id="xtick_5">
     <g id="text_5">
      <!-- 0.4 -->
      <g style="fill:#262626;" transform="translate(435.429798 800.733594)scale(0.11 -0.11)">
       <defs>
        <path d="M 2069 0 
L 2069 1097 
L 81 1097 
L 81 1613 
L 2172 4581 
L 2631 4581 
L 2631 1613 
L 3250 1613 
L 3250 1097 
L 2631 1097 
L 2631 0 
L 2069 0 
z
M 2069 1613 
L 2069 3678 
L 634 1613 
L 2069 1613 
z
" id="ArialMT-34" transform="scale(0.015625)"/>
       </defs>
       <use xlink:href="#ArialMT-30"/>
       <use x="55.615234" xlink:href="#ArialMT-2e"/>
       <use x="83.398438" xlink:href="#ArialMT-34"/>
      </g>
     </g>
    </g>
    <g id="xtick_6">
     <g id="text_6">
      <!-- 0.5 -->
      <g style="fill:#262626;" transform="translate(520.603966 800.733594)scale(0.11 -0.11)">
       <defs>
        <path d="M 266 1200 
L 856 1250 
Q 922 819 1161 601 
Q 1400 384 1738 384 
Q 2144 384 2425 690 
Q 2706 997 2706 1503 
Q 2706 1984 2436 2262 
Q 2166 2541 1728 2541 
Q 1456 2541 1237 2417 
Q 1019 2294 894 2097 
L 366 2166 
L 809 4519 
L 3088 4519 
L 3088 3981 
L 1259 3981 
L 1013 2750 
Q 1425 3038 1878 3038 
Q 2478 3038 2890 2622 
Q 3303 2206 3303 1553 
Q 3303 931 2941 478 
Q 2500 -78 1738 -78 
Q 1113 -78 717 272 
Q 322 622 266 1200 
z
" id="ArialMT-35" transform="scale(0.015625)"/>
       </defs>
       <use xlink:href="#ArialMT-30"/>
       <use x="55.615234" xlink:href="#ArialMT-2e"/>
       <use x="83.398438" xlink:href="#ArialMT-35"/>
      </g>
     </g>
    </g>
    <g id="xtick_7">
     <g id="text_7">
      <!-- 0.6 -->
      <g style="fill:#262626;" transform="translate(605.778135 800.733594)scale(0.11 -0.11)">
       <defs>
        <path d="M 3184 3459 
L 2625 3416 
Q 2550 3747 2413 3897 
Q 2184 4138 1850 4138 
Q 1581 4138 1378 3988 
Q 1113 3794 959 3422 
Q 806 3050 800 2363 
Q 1003 2672 1297 2822 
Q 1591 2972 1913 2972 
Q 2475 2972 2870 2558 
Q 3266 2144 3266 1488 
Q 3266 1056 3080 686 
Q 2894 316 2569 119 
Q 2244 -78 1831 -78 
Q 1128 -78 684 439 
Q 241 956 241 2144 
Q 241 3472 731 4075 
Q 1159 4600 1884 4600 
Q 2425 4600 2770 4297 
Q 3116 3994 3184 3459 
z
M 888 1484 
Q 888 1194 1011 928 
Q 1134 663 1356 523 
Q 1578 384 1822 384 
Q 2178 384 2434 671 
Q 2691 959 2691 1453 
Q 2691 1928 2437 2201 
Q 2184 2475 1800 2475 
Q 1419 2475 1153 2201 
Q 888 1928 888 1484 
z
" id="ArialMT-36" transform="scale(0.015625)"/>
       </defs>
       <use xlink:href="#ArialMT-30"/>
       <use x="55.615234" xlink:href="#ArialMT-2e"/>
       <use x="83.398438" xlink:href="#ArialMT-36"/>
      </g>
     </g>
    </g>
    <g id="xtick_8">
     <g id="text_8">
      <!-- 0.7 -->
      <g style="fill:#262626;" transform="translate(690.952303 800.733594)scale(0.11 -0.11)">
       <defs>
        <path d="M 303 3981 
L 303 4522 
L 3269 4522 
L 3269 4084 
Q 2831 3619 2401 2847 
Q 1972 2075 1738 1259 
Q 1569 684 1522 0 
L 944 0 
Q 953 541 1156 1306 
Q 1359 2072 1739 2783 
Q 2119 3494 2547 3981 
L 303 3981 
z
" id="ArialMT-37" transform="scale(0.015625)"/>
       </defs>
       <use xlink:href="#ArialMT-30"/>
       <use x="55.615234" xlink:href="#ArialMT-2e"/>
       <use x="83.398438" xlink:href="#ArialMT-37"/>
      </g>
     </g>
    </g>
    <g id="text_9">
     <!-- Alpha -->
     <g style="fill:#262626;" transform="translate(413.463125 815.509219)scale(0.12 -0.12)">
      <defs>
       <path d="M -9 0 
L 1750 4581 
L 2403 4581 
L 4278 0 
L 3588 0 
L 3053 1388 
L 1138 1388 
L 634 0 
L -9 0 
z
M 1313 1881 
L 2866 1881 
L 2388 3150 
Q 2169 3728 2063 4100 
Q 1975 3659 1816 3225 
L 1313 1881 
z
" id="ArialMT-41" transform="scale(0.015625)"/>
       <path d="M 409 0 
L 409 4581 
L 972 4581 
L 972 0 
L 409 0 
z
" id="ArialMT-6c" transform="scale(0.015625)"/>
       <path d="M 422 -1272 
L 422 3319 
L 934 3319 
L 934 2888 
Q 1116 3141 1344 3267 
Q 1572 3394 1897 3394 
Q 2322 3394 2647 3175 
Q 2972 2956 3137 2557 
Q 3303 2159 3303 1684 
Q 3303 1175 3120 767 
Q 2938 359 2589 142 
Q 2241 -75 1856 -75 
Q 1575 -75 1351 44 
Q 1128 163 984 344 
L 984 -1272 
L 422 -1272 
z
M 931 1641 
Q 931 1000 1190 694 
Q 1450 388 1819 388 
Q 2194 388 2461 705 
Q 2728 1022 2728 1688 
Q 2728 2322 2467 2637 
Q 2206 2953 1844 2953 
Q 1484 2953 1207 2617 
Q 931 2281 931 1641 
z
" id="ArialMT-70" transform="scale(0.015625)"/>
       <path d="M 422 0 
L 422 4581 
L 984 4581 
L 984 2938 
Q 1378 3394 1978 3394 
Q 2347 3394 2619 3248 
Q 2891 3103 3008 2847 
Q 3125 2591 3125 2103 
L 3125 0 
L 2563 0 
L 2563 2103 
Q 2563 2525 2380 2717 
Q 2197 2909 1863 2909 
Q 1613 2909 1392 2779 
Q 1172 2650 1078 2428 
Q 984 2206 984 1816 
L 984 0 
L 422 0 
z
" id="ArialMT-68" transform="scale(0.015625)"/>
       <path d="M 2588 409 
Q 2275 144 1986 34 
Q 1697 -75 1366 -75 
Q 819 -75 525 192 
Q 231 459 231 875 
Q 231 1119 342 1320 
Q 453 1522 633 1644 
Q 813 1766 1038 1828 
Q 1203 1872 1538 1913 
Q 2219 1994 2541 2106 
Q 2544 2222 2544 2253 
Q 2544 2597 2384 2738 
Q 2169 2928 1744 2928 
Q 1347 2928 1158 2789 
Q 969 2650 878 2297 
L 328 2372 
Q 403 2725 575 2942 
Q 747 3159 1072 3276 
Q 1397 3394 1825 3394 
Q 2250 3394 2515 3294 
Q 2781 3194 2906 3042 
Q 3031 2891 3081 2659 
Q 3109 2516 3109 2141 
L 3109 1391 
Q 3109 606 3145 398 
Q 3181 191 3288 0 
L 2700 0 
Q 2613 175 2588 409 
z
M 2541 1666 
Q 2234 1541 1622 1453 
Q 1275 1403 1131 1340 
Q 988 1278 909 1158 
Q 831 1038 831 891 
Q 831 666 1001 516 
Q 1172 366 1500 366 
Q 1825 366 2078 508 
Q 2331 650 2450 897 
Q 2541 1088 2541 1459 
L 2541 1666 
z
" id="ArialMT-61" transform="scale(0.015625)"/>
      </defs>
      <use xlink:href="#ArialMT-41"/>
      <use x="66.699219" xlink:href="#ArialMT-6c"/>
      <use x="88.916016" xlink:href="#ArialMT-70"/>
      <use x="144.53125" xlink:href="#ArialMT-68"/>
      <use x="200.146484" xlink:href="#ArialMT-61"/>
     </g>
    </g>
   </g>
   <g id="matplotlib.axis_2">
    <g id="ytick_1">
     <g id="text_10">
      <!-- dbo:Country -->
      <g style="fill:#262626;" transform="translate(49.299375 32.94011)scale(0.08 -0.08)">
       <defs>
        <path d="M 2575 0 
L 2575 419 
Q 2259 -75 1647 -75 
Q 1250 -75 917 144 
Q 584 363 401 755 
Q 219 1147 219 1656 
Q 219 2153 384 2558 
Q 550 2963 881 3178 
Q 1213 3394 1622 3394 
Q 1922 3394 2156 3267 
Q 2391 3141 2538 2938 
L 2538 4581 
L 3097 4581 
L 3097 0 
L 2575 0 
z
M 797 1656 
Q 797 1019 1065 703 
Q 1334 388 1700 388 
Q 2069 388 2326 689 
Q 2584 991 2584 1609 
Q 2584 2291 2321 2609 
Q 2059 2928 1675 2928 
Q 1300 2928 1048 2622 
Q 797 2316 797 1656 
z
" id="ArialMT-64" transform="scale(0.015625)"/>
        <path d="M 941 0 
L 419 0 
L 419 4581 
L 981 4581 
L 981 2947 
Q 1338 3394 1891 3394 
Q 2197 3394 2470 3270 
Q 2744 3147 2920 2923 
Q 3097 2700 3197 2384 
Q 3297 2069 3297 1709 
Q 3297 856 2875 390 
Q 2453 -75 1863 -75 
Q 1275 -75 941 416 
L 941 0 
z
M 934 1684 
Q 934 1088 1097 822 
Q 1363 388 1816 388 
Q 2184 388 2453 708 
Q 2722 1028 2722 1663 
Q 2722 2313 2464 2622 
Q 2206 2931 1841 2931 
Q 1472 2931 1203 2611 
Q 934 2291 934 1684 
z
" id="ArialMT-62" transform="scale(0.015625)"/>
        <path d="M 213 1659 
Q 213 2581 725 3025 
Q 1153 3394 1769 3394 
Q 2453 3394 2887 2945 
Q 3322 2497 3322 1706 
Q 3322 1066 3130 698 
Q 2938 331 2570 128 
Q 2203 -75 1769 -75 
Q 1072 -75 642 372 
Q 213 819 213 1659 
z
M 791 1659 
Q 791 1022 1069 705 
Q 1347 388 1769 388 
Q 2188 388 2466 706 
Q 2744 1025 2744 1678 
Q 2744 2294 2464 2611 
Q 2184 2928 1769 2928 
Q 1347 2928 1069 2612 
Q 791 2297 791 1659 
z
" id="ArialMT-6f" transform="scale(0.015625)"/>
        <path d="M 578 2678 
L 578 3319 
L 1219 3319 
L 1219 2678 
L 578 2678 
z
M 578 0 
L 578 641 
L 1219 641 
L 1219 0 
L 578 0 
z
" id="ArialMT-3a" transform="scale(0.015625)"/>
        <path d="M 3763 1606 
L 4369 1453 
Q 4178 706 3683 314 
Q 3188 -78 2472 -78 
Q 1731 -78 1267 223 
Q 803 525 561 1097 
Q 319 1669 319 2325 
Q 319 3041 592 3573 
Q 866 4106 1370 4382 
Q 1875 4659 2481 4659 
Q 3169 4659 3637 4309 
Q 4106 3959 4291 3325 
L 3694 3184 
Q 3534 3684 3231 3912 
Q 2928 4141 2469 4141 
Q 1941 4141 1586 3887 
Q 1231 3634 1087 3207 
Q 944 2781 944 2328 
Q 944 1744 1114 1308 
Q 1284 872 1643 656 
Q 2003 441 2422 441 
Q 2931 441 3284 734 
Q 3638 1028 3763 1606 
z
" id="ArialMT-43" transform="scale(0.015625)"/>
        <path d="M 2597 0 
L 2597 488 
Q 2209 -75 1544 -75 
Q 1250 -75 995 37 
Q 741 150 617 320 
Q 494 491 444 738 
Q 409 903 409 1263 
L 409 3319 
L 972 3319 
L 972 1478 
Q 972 1038 1006 884 
Q 1059 663 1231 536 
Q 1403 409 1656 409 
Q 1909 409 2131 539 
Q 2353 669 2445 892 
Q 2538 1116 2538 1541 
L 2538 3319 
L 3100 3319 
L 3100 0 
L 2597 0 
z
" id="ArialMT-75" transform="scale(0.015625)"/>
        <path d="M 422 0 
L 422 3319 
L 928 3319 
L 928 2847 
Q 1294 3394 1984 3394 
Q 2284 3394 2536 3286 
Q 2788 3178 2913 3003 
Q 3038 2828 3088 2588 
Q 3119 2431 3119 2041 
L 3119 0 
L 2556 0 
L 2556 2019 
Q 2556 2363 2490 2533 
Q 2425 2703 2258 2804 
Q 2091 2906 1866 2906 
Q 1506 2906 1245 2678 
Q 984 2450 984 1813 
L 984 0 
L 422 0 
z
" id="ArialMT-6e" transform="scale(0.015625)"/>
        <path d="M 1650 503 
L 1731 6 
Q 1494 -44 1306 -44 
Q 1000 -44 831 53 
Q 663 150 594 308 
Q 525 466 525 972 
L 525 2881 
L 113 2881 
L 113 3319 
L 525 3319 
L 525 4141 
L 1084 4478 
L 1084 3319 
L 1650 3319 
L 1650 2881 
L 1084 2881 
L 1084 941 
Q 1084 700 1114 631 
Q 1144 563 1211 522 
Q 1278 481 1403 481 
Q 1497 481 1650 503 
z
" id="ArialMT-74" transform="scale(0.015625)"/>
        <path d="M 416 0 
L 416 3319 
L 922 3319 
L 922 2816 
Q 1116 3169 1280 3281 
Q 1444 3394 1641 3394 
Q 1925 3394 2219 3213 
L 2025 2691 
Q 1819 2813 1613 2813 
Q 1428 2813 1281 2702 
Q 1134 2591 1072 2394 
Q 978 2094 978 1738 
L 978 0 
L 416 0 
z
" id="ArialMT-72" transform="scale(0.015625)"/>
        <path d="M 397 -1278 
L 334 -750 
Q 519 -800 656 -800 
Q 844 -800 956 -737 
Q 1069 -675 1141 -563 
Q 1194 -478 1313 -144 
Q 1328 -97 1363 -6 
L 103 3319 
L 709 3319 
L 1400 1397 
Q 1534 1031 1641 628 
Q 1738 1016 1872 1384 
L 2581 3319 
L 3144 3319 
L 1881 -56 
Q 1678 -603 1566 -809 
Q 1416 -1088 1222 -1217 
Q 1028 -1347 759 -1347 
Q 597 -1347 397 -1278 
z
" id="ArialMT-79" transform="scale(0.015625)"/>
       </defs>
       <use xlink:href="#ArialMT-64"/>
       <use x="55.615234" xlink:href="#ArialMT-62"/>
       <use x="111.230469" xlink:href="#ArialMT-6f"/>
       <use x="166.845703" xlink:href="#ArialMT-3a"/>
       <use x="194.628906" xlink:href="#ArialMT-43"/>
       <use x="266.845703" xlink:href="#ArialMT-6f"/>
       <use x="322.460938" xlink:href="#ArialMT-75"/>
       <use x="378.076172" xlink:href="#ArialMT-6e"/>
       <use x="433.691406" xlink:href="#ArialMT-74"/>
       <use x="461.474609" xlink:href="#ArialMT-72"/>
       <use x="494.775391" xlink:href="#ArialMT-79"/>
      </g>
     </g>
    </g>
    <g id="ytick_2">
     <g id="text_11">
      <!-- dbo:Bird -->
      <g style="fill:#262626;" transform="translate(63.083125 78.547831)scale(0.08 -0.08)">
       <defs>
        <path d="M 469 0 
L 469 4581 
L 2188 4581 
Q 2713 4581 3030 4442 
Q 3347 4303 3526 4014 
Q 3706 3725 3706 3409 
Q 3706 3116 3547 2856 
Q 3388 2597 3066 2438 
Q 3481 2316 3704 2022 
Q 3928 1728 3928 1328 
Q 3928 1006 3792 729 
Q 3656 453 3456 303 
Q 3256 153 2954 76 
Q 2653 0 2216 0 
L 469 0 
z
M 1075 2656 
L 2066 2656 
Q 2469 2656 2644 2709 
Q 2875 2778 2992 2937 
Q 3109 3097 3109 3338 
Q 3109 3566 3000 3739 
Q 2891 3913 2687 3977 
Q 2484 4041 1991 4041 
L 1075 4041 
L 1075 2656 
z
M 1075 541 
L 2216 541 
Q 2509 541 2628 563 
Q 2838 600 2978 687 
Q 3119 775 3209 942 
Q 3300 1109 3300 1328 
Q 3300 1584 3169 1773 
Q 3038 1963 2805 2039 
Q 2572 2116 2134 2116 
L 1075 2116 
L 1075 541 
z
" id="ArialMT-42" transform="scale(0.015625)"/>
        <path d="M 425 3934 
L 425 4581 
L 988 4581 
L 988 3934 
L 425 3934 
z
M 425 0 
L 425 3319 
L 988 3319 
L 988 0 
L 425 0 
z
" id="ArialMT-69" transform="scale(0.015625)"/>
       </defs>
       <use xlink:href="#ArialMT-64"/>
       <use x="55.615234" xlink:href="#ArialMT-62"/>
       <use x="111.230469" xlink:href="#ArialMT-6f"/>
       <use x="166.845703" xlink:href="#ArialMT-3a"/>
       <use x="194.628906" xlink:href="#ArialMT-42"/>
       <use x="261.328125" xlink:href="#ArialMT-69"/>
       <use x="283.544922" xlink:href="#ArialMT-72"/>
       <use x="316.845703" xlink:href="#ArialMT-64"/>
      </g>
     </g>
    </g>
    <g id="ytick_3">
     <g id="text_12">
      <!-- dbo:Company -->
      <g style="fill:#262626;" transform="translate(43.073125 124.253051)scale(0.08 -0.08)">
       <defs>
        <path d="M 422 0 
L 422 3319 
L 925 3319 
L 925 2853 
Q 1081 3097 1340 3245 
Q 1600 3394 1931 3394 
Q 2300 3394 2536 3241 
Q 2772 3088 2869 2813 
Q 3263 3394 3894 3394 
Q 4388 3394 4653 3120 
Q 4919 2847 4919 2278 
L 4919 0 
L 4359 0 
L 4359 2091 
Q 4359 2428 4304 2576 
Q 4250 2725 4106 2815 
Q 3963 2906 3769 2906 
Q 3419 2906 3187 2673 
Q 2956 2441 2956 1928 
L 2956 0 
L 2394 0 
L 2394 2156 
Q 2394 2531 2256 2718 
Q 2119 2906 1806 2906 
Q 1569 2906 1367 2781 
Q 1166 2656 1075 2415 
Q 984 2175 984 1722 
L 984 0 
L 422 0 
z
" id="ArialMT-6d" transform="scale(0.015625)"/>
       </defs>
       <use xlink:href="#ArialMT-64"/>
       <use x="55.615234" xlink:href="#ArialMT-62"/>
       <use x="111.230469" xlink:href="#ArialMT-6f"/>
       <use x="166.845703" xlink:href="#ArialMT-3a"/>
       <use x="194.628906" xlink:href="#ArialMT-43"/>
       <use x="266.845703" xlink:href="#ArialMT-6f"/>
       <use x="322.460938" xlink:href="#ArialMT-6d"/>
       <use x="405.761719" xlink:href="#ArialMT-70"/>
       <use x="461.376953" xlink:href="#ArialMT-61"/>
       <use x="516.992188" xlink:href="#ArialMT-6e"/>
       <use x="572.607422" xlink:href="#ArialMT-79"/>
      </g>
     </g>
    </g>
    <g id="ytick_4">
     <g id="text_13">
      <!-- dbo:Saint -->
      <g style="fill:#262626;" transform="translate(59.075625 169.860772)scale(0.08 -0.08)">
       <defs>
        <path d="M 288 1472 
L 859 1522 
Q 900 1178 1048 958 
Q 1197 738 1509 602 
Q 1822 466 2213 466 
Q 2559 466 2825 569 
Q 3091 672 3220 851 
Q 3350 1031 3350 1244 
Q 3350 1459 3225 1620 
Q 3100 1781 2813 1891 
Q 2628 1963 1997 2114 
Q 1366 2266 1113 2400 
Q 784 2572 623 2826 
Q 463 3081 463 3397 
Q 463 3744 659 4045 
Q 856 4347 1234 4503 
Q 1613 4659 2075 4659 
Q 2584 4659 2973 4495 
Q 3363 4331 3572 4012 
Q 3781 3694 3797 3291 
L 3216 3247 
Q 3169 3681 2898 3903 
Q 2628 4125 2100 4125 
Q 1550 4125 1298 3923 
Q 1047 3722 1047 3438 
Q 1047 3191 1225 3031 
Q 1400 2872 2139 2705 
Q 2878 2538 3153 2413 
Q 3553 2228 3743 1945 
Q 3934 1663 3934 1294 
Q 3934 928 3725 604 
Q 3516 281 3123 101 
Q 2731 -78 2241 -78 
Q 1619 -78 1198 103 
Q 778 284 539 648 
Q 300 1013 288 1472 
z
" id="ArialMT-53" transform="scale(0.015625)"/>
       </defs>
       <use xlink:href="#ArialMT-64"/>
       <use x="55.615234" xlink:href="#ArialMT-62"/>
       <use x="111.230469" xlink:href="#ArialMT-6f"/>
       <use x="166.845703" xlink:href="#ArialMT-3a"/>
       <use x="194.628906" xlink:href="#ArialMT-53"/>
       <use x="261.328125" xlink:href="#ArialMT-61"/>
       <use x="316.943359" xlink:href="#ArialMT-69"/>
       <use x="339.160156" xlink:href="#ArialMT-6e"/>
       <use x="394.775391" xlink:href="#ArialMT-74"/>
      </g>
     </g>
    </g>
    <g id="ytick_5">
     <g id="text_14">
      <!-- dbo:VideoGame -->
      <g style="fill:#262626;" transform="translate(35.205625 215.517243)scale(0.08 -0.08)">
       <defs>
        <path d="M 1803 0 
L 28 4581 
L 684 4581 
L 1875 1253 
Q 2019 853 2116 503 
Q 2222 878 2363 1253 
L 3600 4581 
L 4219 4581 
L 2425 0 
L 1803 0 
z
" id="ArialMT-56" transform="scale(0.015625)"/>
        <path d="M 2694 1069 
L 3275 997 
Q 3138 488 2766 206 
Q 2394 -75 1816 -75 
Q 1088 -75 661 373 
Q 234 822 234 1631 
Q 234 2469 665 2931 
Q 1097 3394 1784 3394 
Q 2450 3394 2872 2941 
Q 3294 2488 3294 1666 
Q 3294 1616 3291 1516 
L 816 1516 
Q 847 969 1125 678 
Q 1403 388 1819 388 
Q 2128 388 2347 550 
Q 2566 713 2694 1069 
z
M 847 1978 
L 2700 1978 
Q 2663 2397 2488 2606 
Q 2219 2931 1791 2931 
Q 1403 2931 1139 2672 
Q 875 2413 847 1978 
z
" id="ArialMT-65" transform="scale(0.015625)"/>
        <path d="M 2638 1797 
L 2638 2334 
L 4578 2338 
L 4578 638 
Q 4131 281 3656 101 
Q 3181 -78 2681 -78 
Q 2006 -78 1454 211 
Q 903 500 622 1047 
Q 341 1594 341 2269 
Q 341 2938 620 3517 
Q 900 4097 1425 4378 
Q 1950 4659 2634 4659 
Q 3131 4659 3532 4498 
Q 3934 4338 4162 4050 
Q 4391 3763 4509 3300 
L 3963 3150 
Q 3859 3500 3706 3700 
Q 3553 3900 3268 4020 
Q 2984 4141 2638 4141 
Q 2222 4141 1919 4014 
Q 1616 3888 1430 3681 
Q 1244 3475 1141 3228 
Q 966 2803 966 2306 
Q 966 1694 1177 1281 
Q 1388 869 1791 669 
Q 2194 469 2647 469 
Q 3041 469 3416 620 
Q 3791 772 3984 944 
L 3984 1797 
L 2638 1797 
z
" id="ArialMT-47" transform="scale(0.015625)"/>
       </defs>
       <use xlink:href="#ArialMT-64"/>
       <use x="55.615234" xlink:href="#ArialMT-62"/>
       <use x="111.230469" xlink:href="#ArialMT-6f"/>
       <use x="166.845703" xlink:href="#ArialMT-3a"/>
       <use x="194.628906" xlink:href="#ArialMT-56"/>
       <use x="259.578125" xlink:href="#ArialMT-69"/>
       <use x="281.794922" xlink:href="#ArialMT-64"/>
       <use x="337.410156" xlink:href="#ArialMT-65"/>
       <use x="393.025391" xlink:href="#ArialMT-6f"/>
       <use x="448.640625" xlink:href="#ArialMT-47"/>
       <use x="526.423828" xlink:href="#ArialMT-61"/>
       <use x="582.039062" xlink:href="#ArialMT-6d"/>
       <use x="665.339844" xlink:href="#ArialMT-65"/>
      </g>
     </g>
    </g>
    <g id="ytick_6">
     <g id="text_15">
      <!-- dbo:Airline -->
      <g style="fill:#262626;" transform="translate(55.079375 261.173713)scale(0.08 -0.08)">
       <use xlink:href="#ArialMT-64"/>
       <use x="55.615234" xlink:href="#ArialMT-62"/>
       <use x="111.230469" xlink:href="#ArialMT-6f"/>
       <use x="166.845703" xlink:href="#ArialMT-3a"/>
       <use x="194.628906" xlink:href="#ArialMT-41"/>
       <use x="261.328125" xlink:href="#ArialMT-69"/>
       <use x="283.544922" xlink:href="#ArialMT-72"/>
       <use x="316.845703" xlink:href="#ArialMT-6c"/>
       <use x="339.0625" xlink:href="#ArialMT-69"/>
       <use x="361.279297" xlink:href="#ArialMT-6e"/>
       <use x="416.894531" xlink:href="#ArialMT-65"/>
      </g>
     </g>
    </g>
    <g id="ytick_7">
     <g id="text_16">
      <!-- dbo:City -->
      <g style="fill:#262626;" transform="translate(63.531875 306.878934)scale(0.08 -0.08)">
       <use xlink:href="#ArialMT-64"/>
       <use x="55.615234" xlink:href="#ArialMT-62"/>
       <use x="111.230469" xlink:href="#ArialMT-6f"/>
       <use x="166.845703" xlink:href="#ArialMT-3a"/>
       <use x="194.628906" xlink:href="#ArialMT-43"/>
       <use x="266.845703" xlink:href="#ArialMT-69"/>
       <use x="289.0625" xlink:href="#ArialMT-74"/>
       <use x="316.845703" xlink:href="#ArialMT-79"/>
      </g>
     </g>
    </g>
    <g id="ytick_8">
     <g id="text_17">
      <!-- dbo:Animal -->
      <g style="fill:#262626;" transform="translate(52.856875 352.486654)scale(0.08 -0.08)">
       <use xlink:href="#ArialMT-64"/>
       <use x="55.615234" xlink:href="#ArialMT-62"/>
       <use x="111.230469" xlink:href="#ArialMT-6f"/>
       <use x="166.845703" xlink:href="#ArialMT-3a"/>
       <use x="194.628906" xlink:href="#ArialMT-41"/>
       <use x="261.328125" xlink:href="#ArialMT-6e"/>
       <use x="316.943359" xlink:href="#ArialMT-69"/>
       <use x="339.160156" xlink:href="#ArialMT-6d"/>
       <use x="422.460938" xlink:href="#ArialMT-61"/>
       <use x="478.076172" xlink:href="#ArialMT-6c"/>
      </g>
     </g>
    </g>
    <g id="ytick_9">
     <g id="text_18">
      <!-- dbo:Film -->
      <g style="fill:#262626;" transform="translate(62.204375 398.143125)scale(0.08 -0.08)">
       <defs>
        <path d="M 525 0 
L 525 4581 
L 3616 4581 
L 3616 4041 
L 1131 4041 
L 1131 2622 
L 3281 2622 
L 3281 2081 
L 1131 2081 
L 1131 0 
L 525 0 
z
" id="ArialMT-46" transform="scale(0.015625)"/>
       </defs>
       <use xlink:href="#ArialMT-64"/>
       <use x="55.615234" xlink:href="#ArialMT-62"/>
       <use x="111.230469" xlink:href="#ArialMT-6f"/>
       <use x="166.845703" xlink:href="#ArialMT-3a"/>
       <use x="194.628906" xlink:href="#ArialMT-46"/>
       <use x="255.712891" xlink:href="#ArialMT-69"/>
       <use x="277.929688" xlink:href="#ArialMT-6c"/>
       <use x="300.146484" xlink:href="#ArialMT-6d"/>
      </g>
     </g>
    </g>
    <g id="ytick_10">
     <g id="text_19">
      <!-- dbo:Hospital -->
      <g style="fill:#262626;" transform="translate(48.408125 443.799596)scale(0.08 -0.08)">
       <defs>
        <path d="M 513 0 
L 513 4581 
L 1119 4581 
L 1119 2700 
L 3500 2700 
L 3500 4581 
L 4106 4581 
L 4106 0 
L 3500 0 
L 3500 2159 
L 1119 2159 
L 1119 0 
L 513 0 
z
" id="ArialMT-48" transform="scale(0.015625)"/>
        <path d="M 197 991 
L 753 1078 
Q 800 744 1014 566 
Q 1228 388 1613 388 
Q 2000 388 2187 545 
Q 2375 703 2375 916 
Q 2375 1106 2209 1216 
Q 2094 1291 1634 1406 
Q 1016 1563 777 1677 
Q 538 1791 414 1992 
Q 291 2194 291 2438 
Q 291 2659 392 2848 
Q 494 3038 669 3163 
Q 800 3259 1026 3326 
Q 1253 3394 1513 3394 
Q 1903 3394 2198 3281 
Q 2494 3169 2634 2976 
Q 2775 2784 2828 2463 
L 2278 2388 
Q 2241 2644 2061 2787 
Q 1881 2931 1553 2931 
Q 1166 2931 1000 2803 
Q 834 2675 834 2503 
Q 834 2394 903 2306 
Q 972 2216 1119 2156 
Q 1203 2125 1616 2013 
Q 2213 1853 2448 1751 
Q 2684 1650 2818 1456 
Q 2953 1263 2953 975 
Q 2953 694 2789 445 
Q 2625 197 2315 61 
Q 2006 -75 1616 -75 
Q 969 -75 630 194 
Q 291 463 197 991 
z
" id="ArialMT-73" transform="scale(0.015625)"/>
       </defs>
       <use xlink:href="#ArialMT-64"/>
       <use x="55.615234" xlink:href="#ArialMT-62"/>
       <use x="111.230469" xlink:href="#ArialMT-6f"/>
       <use x="166.845703" xlink:href="#ArialMT-3a"/>
       <use x="194.628906" xlink:href="#ArialMT-48"/>
       <use x="266.845703" xlink:href="#ArialMT-6f"/>
       <use x="322.460938" xlink:href="#ArialMT-73"/>
       <use x="372.460938" xlink:href="#ArialMT-70"/>
       <use x="428.076172" xlink:href="#ArialMT-69"/>
       <use x="450.292969" xlink:href="#ArialMT-74"/>
       <use x="478.076172" xlink:href="#ArialMT-61"/>
       <use x="533.691406" xlink:href="#ArialMT-6c"/>
      </g>
     </g>
    </g>
    <g id="ytick_11">
     <g id="text_20">
      <!-- dbo:PoliticalParty -->
      <g style="fill:#262626;" transform="translate(31.071875 489.456066)scale(0.08 -0.08)">
       <defs>
        <path d="M 494 0 
L 494 4581 
L 2222 4581 
Q 2678 4581 2919 4538 
Q 3256 4481 3484 4323 
Q 3713 4166 3852 3881 
Q 3991 3597 3991 3256 
Q 3991 2672 3619 2267 
Q 3247 1863 2275 1863 
L 1100 1863 
L 1100 0 
L 494 0 
z
M 1100 2403 
L 2284 2403 
Q 2872 2403 3119 2622 
Q 3366 2841 3366 3238 
Q 3366 3525 3220 3729 
Q 3075 3934 2838 4000 
Q 2684 4041 2272 4041 
L 1100 4041 
L 1100 2403 
z
" id="ArialMT-50" transform="scale(0.015625)"/>
        <path d="M 2588 1216 
L 3141 1144 
Q 3050 572 2676 248 
Q 2303 -75 1759 -75 
Q 1078 -75 664 370 
Q 250 816 250 1647 
Q 250 2184 428 2587 
Q 606 2991 970 3192 
Q 1334 3394 1763 3394 
Q 2303 3394 2647 3120 
Q 2991 2847 3088 2344 
L 2541 2259 
Q 2463 2594 2264 2762 
Q 2066 2931 1784 2931 
Q 1359 2931 1093 2626 
Q 828 2322 828 1663 
Q 828 994 1084 691 
Q 1341 388 1753 388 
Q 2084 388 2306 591 
Q 2528 794 2588 1216 
z
" id="ArialMT-63" transform="scale(0.015625)"/>
       </defs>
       <use xlink:href="#ArialMT-64"/>
       <use x="55.615234" xlink:href="#ArialMT-62"/>
       <use x="111.230469" xlink:href="#ArialMT-6f"/>
       <use x="166.845703" xlink:href="#ArialMT-3a"/>
       <use x="194.628906" xlink:href="#ArialMT-50"/>
       <use x="261.328125" xlink:href="#ArialMT-6f"/>
       <use x="316.943359" xlink:href="#ArialMT-6c"/>
       <use x="339.160156" xlink:href="#ArialMT-69"/>
       <use x="361.376953" xlink:href="#ArialMT-74"/>
       <use x="389.160156" xlink:href="#ArialMT-69"/>
       <use x="411.376953" xlink:href="#ArialMT-63"/>
       <use x="461.376953" xlink:href="#ArialMT-61"/>
       <use x="516.992188" xlink:href="#ArialMT-6c"/>
       <use x="539.208984" xlink:href="#ArialMT-50"/>
       <use x="605.908203" xlink:href="#ArialMT-61"/>
       <use x="661.523438" xlink:href="#ArialMT-72"/>
       <use x="694.824219" xlink:href="#ArialMT-74"/>
       <use x="722.607422" xlink:href="#ArialMT-79"/>
      </g>
     </g>
    </g>
    <g id="ytick_12">
     <g id="text_21">
      <!-- dbo:Person -->
      <g style="fill:#262626;" transform="translate(51.963125 535.112537)scale(0.08 -0.08)">
       <use xlink:href="#ArialMT-64"/>
       <use x="55.615234" xlink:href="#ArialMT-62"/>
       <use x="111.230469" xlink:href="#ArialMT-6f"/>
       <use x="166.845703" xlink:href="#ArialMT-3a"/>
       <use x="194.628906" xlink:href="#ArialMT-50"/>
       <use x="261.328125" xlink:href="#ArialMT-65"/>
       <use x="316.943359" xlink:href="#ArialMT-72"/>
       <use x="350.244141" xlink:href="#ArialMT-73"/>
       <use x="400.244141" xlink:href="#ArialMT-6f"/>
       <use x="455.859375" xlink:href="#ArialMT-6e"/>
      </g>
     </g>
    </g>
    <g id="ytick_13">
     <g id="text_22">
      <!-- dbo:Plant -->
      <g style="fill:#262626;" transform="translate(59.075625 580.769007)scale(0.08 -0.08)">
       <use xlink:href="#ArialMT-64"/>
       <use x="55.615234" xlink:href="#ArialMT-62"/>
       <use x="111.230469" xlink:href="#ArialMT-6f"/>
       <use x="166.845703" xlink:href="#ArialMT-3a"/>
       <use x="194.628906" xlink:href="#ArialMT-50"/>
       <use x="261.328125" xlink:href="#ArialMT-6c"/>
       <use x="283.544922" xlink:href="#ArialMT-61"/>
       <use x="339.160156" xlink:href="#ArialMT-6e"/>
       <use x="394.775391" xlink:href="#ArialMT-74"/>
      </g>
     </g>
    </g>
    <g id="ytick_14">
     <g id="text_23">
      <!-- dbo:Museum -->
      <g style="fill:#262626;" transform="translate(46.635625 626.425478)scale(0.08 -0.08)">
       <defs>
        <path d="M 475 0 
L 475 4581 
L 1388 4581 
L 2472 1338 
Q 2622 884 2691 659 
Q 2769 909 2934 1394 
L 4031 4581 
L 4847 4581 
L 4847 0 
L 4263 0 
L 4263 3834 
L 2931 0 
L 2384 0 
L 1059 3900 
L 1059 0 
L 475 0 
z
" id="ArialMT-4d" transform="scale(0.015625)"/>
       </defs>
       <use xlink:href="#ArialMT-64"/>
       <use x="55.615234" xlink:href="#ArialMT-62"/>
       <use x="111.230469" xlink:href="#ArialMT-6f"/>
       <use x="166.845703" xlink:href="#ArialMT-3a"/>
       <use x="194.628906" xlink:href="#ArialMT-4d"/>
       <use x="277.929688" xlink:href="#ArialMT-75"/>
       <use x="333.544922" xlink:href="#ArialMT-73"/>
       <use x="383.544922" xlink:href="#ArialMT-65"/>
       <use x="439.160156" xlink:href="#ArialMT-75"/>
       <use x="494.775391" xlink:href="#ArialMT-6d"/>
      </g>
     </g>
    </g>
    <g id="ytick_15">
     <g id="text_24">
      <!-- dbo:University -->
      <g style="fill:#262626;" transform="translate(42.193125 672.081949)scale(0.08 -0.08)">
       <defs>
        <path d="M 3500 4581 
L 4106 4581 
L 4106 1934 
Q 4106 1244 3950 837 
Q 3794 431 3386 176 
Q 2978 -78 2316 -78 
Q 1672 -78 1262 144 
Q 853 366 678 786 
Q 503 1206 503 1934 
L 503 4581 
L 1109 4581 
L 1109 1938 
Q 1109 1341 1220 1058 
Q 1331 775 1601 622 
Q 1872 469 2263 469 
Q 2931 469 3215 772 
Q 3500 1075 3500 1938 
L 3500 4581 
z
" id="ArialMT-55" transform="scale(0.015625)"/>
        <path d="M 1344 0 
L 81 3319 
L 675 3319 
L 1388 1331 
Q 1503 1009 1600 663 
Q 1675 925 1809 1294 
L 2547 3319 
L 3125 3319 
L 1869 0 
L 1344 0 
z
" id="ArialMT-76" transform="scale(0.015625)"/>
       </defs>
       <use xlink:href="#ArialMT-64"/>
       <use x="55.615234" xlink:href="#ArialMT-62"/>
       <use x="111.230469" xlink:href="#ArialMT-6f"/>
       <use x="166.845703" xlink:href="#ArialMT-3a"/>
       <use x="194.628906" xlink:href="#ArialMT-55"/>
       <use x="266.845703" xlink:href="#ArialMT-6e"/>
       <use x="322.460938" xlink:href="#ArialMT-69"/>
       <use x="344.677734" xlink:href="#ArialMT-76"/>
       <use x="394.677734" xlink:href="#ArialMT-65"/>
       <use x="450.292969" xlink:href="#ArialMT-72"/>
       <use x="483.59375" xlink:href="#ArialMT-73"/>
       <use x="533.59375" xlink:href="#ArialMT-69"/>
       <use x="555.810547" xlink:href="#ArialMT-74"/>
       <use x="583.59375" xlink:href="#ArialMT-79"/>
      </g>
     </g>
    </g>
    <g id="ytick_16">
     <g id="text_25">
      <!-- dbo:Book -->
      <g style="fill:#262626;" transform="translate(59.075625 717.738419)scale(0.08 -0.08)">
       <defs>
        <path d="M 425 0 
L 425 4581 
L 988 4581 
L 988 1969 
L 2319 3319 
L 3047 3319 
L 1778 2088 
L 3175 0 
L 2481 0 
L 1384 1697 
L 988 1316 
L 988 0 
L 425 0 
z
" id="ArialMT-6b" transform="scale(0.015625)"/>
       </defs>
       <use xlink:href="#ArialMT-64"/>
       <use x="55.615234" xlink:href="#ArialMT-62"/>
       <use x="111.230469" xlink:href="#ArialMT-6f"/>
       <use x="166.845703" xlink:href="#ArialMT-3a"/>
       <use x="194.628906" xlink:href="#ArialMT-42"/>
       <use x="261.328125" xlink:href="#ArialMT-6f"/>
       <use x="316.943359" xlink:href="#ArialMT-6f"/>
       <use x="372.558594" xlink:href="#ArialMT-6b"/>
      </g>
     </g>
    </g>
    <g id="ytick_17">
     <g id="text_26">
      <!-- dbo:TelevisionShow -->
      <g style="fill:#262626;" transform="translate(22.174375 763.39489)scale(0.08 -0.08)">
       <defs>
        <path d="M 1659 0 
L 1659 4041 
L 150 4041 
L 150 4581 
L 3781 4581 
L 3781 4041 
L 2266 4041 
L 2266 0 
L 1659 0 
z
" id="ArialMT-54" transform="scale(0.015625)"/>
        <path d="M 1034 0 
L 19 3319 
L 600 3319 
L 1128 1403 
L 1325 691 
Q 1338 744 1497 1375 
L 2025 3319 
L 2603 3319 
L 3100 1394 
L 3266 759 
L 3456 1400 
L 4025 3319 
L 4572 3319 
L 3534 0 
L 2950 0 
L 2422 1988 
L 2294 2553 
L 1622 0 
L 1034 0 
z
" id="ArialMT-77" transform="scale(0.015625)"/>
       </defs>
       <use xlink:href="#ArialMT-64"/>
       <use x="55.615234" xlink:href="#ArialMT-62"/>
       <use x="111.230469" xlink:href="#ArialMT-6f"/>
       <use x="166.845703" xlink:href="#ArialMT-3a"/>
       <use x="194.628906" xlink:href="#ArialMT-54"/>
       <use x="244.587891" xlink:href="#ArialMT-65"/>
       <use x="300.203125" xlink:href="#ArialMT-6c"/>
       <use x="322.419922" xlink:href="#ArialMT-65"/>
       <use x="378.035156" xlink:href="#ArialMT-76"/>
       <use x="428.035156" xlink:href="#ArialMT-69"/>
       <use x="450.251953" xlink:href="#ArialMT-73"/>
       <use x="500.251953" xlink:href="#ArialMT-69"/>
       <use x="522.46875" xlink:href="#ArialMT-6f"/>
       <use x="578.083984" xlink:href="#ArialMT-6e"/>
       <use x="633.699219" xlink:href="#ArialMT-53"/>
       <use x="700.398438" xlink:href="#ArialMT-68"/>
       <use x="756.013672" xlink:href="#ArialMT-6f"/>
       <use x="811.628906" xlink:href="#ArialMT-77"/>
      </g>
     </g>
    </g>
    <g id="text_27">
     <!-- Class -->
     <g style="fill:#262626;" transform="translate(15.789375 410.282812)rotate(-90)scale(0.12 -0.12)">
      <use xlink:href="#ArialMT-43"/>
      <use x="72.216797" xlink:href="#ArialMT-6c"/>
      <use x="94.433594" xlink:href="#ArialMT-61"/>
      <use x="150.048828" xlink:href="#ArialMT-73"/>
      <use x="200.048828" xlink:href="#ArialMT-73"/>
     </g>
    </g>
   </g>
   <g id="patch_3">
    <path clip-path="url(#pd546034767)" d="M 102.378125 11.765647 
L 488.923156 11.765647 
L 488.923156 20.896941 
L 102.378125 20.896941 
z
" style="fill:#aeccdb;stroke:#ffffff;stroke-linejoin:miter;"/>
   </g>
   <g id="patch_4">
    <path clip-path="url(#pd546034767)" d="M 102.378125 57.422118 
L 452.955002 57.422118 
L 452.955002 66.553412 
L 102.378125 66.553412 
z
" style="fill:#aeccdb;stroke:#ffffff;stroke-linejoin:miter;"/>
   </g>
   <g id="patch_5">
    <path clip-path="url(#pd546034767)" d="M 102.378125 103.078588 
L 433.888156 103.078588 
L 433.888156 112.209882 
L 102.378125 112.209882 
z
" style="fill:#aeccdb;stroke:#ffffff;stroke-linejoin:miter;"/>
   </g>
   <g id="patch_6">
    <path clip-path="url(#pd546034767)" d="M 102.378125 148.735059 
L 381.323526 148.735059 
L 381.323526 157.866353 
L 102.378125 157.866353 
z
" style="fill:#aeccdb;stroke:#ffffff;stroke-linejoin:miter;"/>
   </g>
   <g id="patch_7">
    <path clip-path="url(#pd546034767)" d="M 102.378125 194.391529 
L 446.396591 194.391529 
L 446.396591 203.522824 
L 102.378125 203.522824 
z
" style="fill:#aeccdb;stroke:#ffffff;stroke-linejoin:miter;"/>
   </g>
   <g id="patch_8">
    <path clip-path="url(#pd546034767)" d="M 102.378125 240.048 
L 375.361334 240.048 
L 375.361334 249.179294 
L 102.378125 249.179294 
z
" style="fill:#aeccdb;stroke:#ffffff;stroke-linejoin:miter;"/>
   </g>
   <g id="patch_9">
    <path clip-path="url(#pd546034767)" d="M 102.378125 285.704471 
L 398.500317 285.704471 
L 398.500317 294.835765 
L 102.378125 294.835765 
z
" style="fill:#aeccdb;stroke:#ffffff;stroke-linejoin:miter;"/>
   </g>
   <g id="patch_10">
    <path clip-path="url(#pd546034767)" d="M 102.378125 331.360941 
L 544.176536 331.360941 
L 544.176536 340.492235 
L 102.378125 340.492235 
z
" style="fill:#aeccdb;stroke:#ffffff;stroke-linejoin:miter;"/>
   </g>
   <g id="patch_11">
    <path clip-path="url(#pd546034767)" d="M 102.378125 377.017412 
L 548.477831 377.017412 
L 548.477831 386.148706 
L 102.378125 386.148706 
z
" style="fill:#aeccdb;stroke:#ffffff;stroke-linejoin:miter;"/>
   </g>
   <g id="patch_12">
    <path clip-path="url(#pd546034767)" d="M 102.378125 422.673882 
L 442.223057 422.673882 
L 442.223057 431.805176 
L 102.378125 431.805176 
z
" style="fill:#aeccdb;stroke:#ffffff;stroke-linejoin:miter;"/>
   </g>
   <g id="patch_13">
    <path clip-path="url(#pd546034767)" d="M 102.378125 468.330353 
L 455.076613 468.330353 
L 455.076613 477.461647 
L 102.378125 477.461647 
z
" style="fill:#aeccdb;stroke:#ffffff;stroke-linejoin:miter;"/>
   </g>
   <g id="patch_14">
    <path clip-path="url(#pd546034767)" d="M 102.378125 513.986824 
L 724.149554 513.986824 
L 724.149554 523.118118 
L 102.378125 523.118118 
z
" style="fill:#aeccdb;stroke:#ffffff;stroke-linejoin:miter;"/>
   </g>
   <g id="patch_15">
    <path clip-path="url(#pd546034767)" d="M 102.378125 559.643294 
L 500.780297 559.643294 
L 500.780297 568.774588 
L 102.378125 568.774588 
z
" style="fill:#aeccdb;stroke:#ffffff;stroke-linejoin:miter;"/>
   </g>
   <g id="patch_16">
    <path clip-path="url(#pd546034767)" d="M 102.378125 605.299765 
L 390.763663 605.299765 
L 390.763663 614.431059 
L 102.378125 614.431059 
z
" style="fill:#aeccdb;stroke:#ffffff;stroke-linejoin:miter;"/>
   </g>
   <g id="patch_17">
    <path clip-path="url(#pd546034767)" d="M 102.378125 650.956235 
L 418.80016 650.956235 
L 418.80016 660.087529 
L 102.378125 660.087529 
z
" style="fill:#aeccdb;stroke:#ffffff;stroke-linejoin:miter;"/>
   </g>
   <g id="patch_18">
    <path clip-path="url(#pd546034767)" d="M 102.378125 696.612706 
L 408.57926 696.612706 
L 408.57926 705.744 
L 102.378125 705.744 
z
" style="fill:#aeccdb;stroke:#ffffff;stroke-linejoin:miter;"/>
   </g>
   <g id="patch_19">
    <path clip-path="url(#pd546034767)" d="M 102.378125 742.269176 
L 429.872802 742.269176 
L 429.872802 751.400471 
L 102.378125 751.400471 
z
" style="fill:#aeccdb;stroke:#ffffff;stroke-linejoin:miter;"/>
   </g>
   <g id="patch_20">
    <path clip-path="url(#pd546034767)" d="M 102.378125 20.896941 
L 494.179299 20.896941 
L 494.179299 30.028235 
L 102.378125 30.028235 
z
" style="fill:#3274a1;stroke:#ffffff;stroke-linejoin:miter;"/>
   </g>
   <g id="patch_21">
    <path clip-path="url(#pd546034767)" d="M 102.378125 66.553412 
L 438.390219 66.553412 
L 438.390219 75.684706 
L 102.378125 75.684706 
z
" style="fill:#3274a1;stroke:#ffffff;stroke-linejoin:miter;"/>
   </g>
   <g id="patch_22">
    <path clip-path="url(#pd546034767)" d="M 102.378125 112.209882 
L 430.937479 112.209882 
L 430.937479 121.341176 
L 102.378125 121.341176 
z
" style="fill:#3274a1;stroke:#ffffff;stroke-linejoin:miter;"/>
   </g>
   <g id="patch_23">
    <path clip-path="url(#pd546034767)" d="M 102.378125 157.866353 
L 381.323526 157.866353 
L 381.323526 166.997647 
L 102.378125 166.997647 
z
" style="fill:#3274a1;stroke:#ffffff;stroke-linejoin:miter;"/>
   </g>
   <g id="patch_24">
    <path clip-path="url(#pd546034767)" d="M 102.378125 203.522824 
L 415.819064 203.522824 
L 415.819064 212.654118 
L 102.378125 212.654118 
z
" style="fill:#3274a1;stroke:#ffffff;stroke-linejoin:miter;"/>
   </g>
   <g id="patch_25">
    <path clip-path="url(#pd546034767)" d="M 102.378125 249.179294 
L 375.361334 249.179294 
L 375.361334 258.310588 
L 102.378125 258.310588 
z
" style="fill:#3274a1;stroke:#ffffff;stroke-linejoin:miter;"/>
   </g>
   <g id="patch_26">
    <path clip-path="url(#pd546034767)" d="M 102.378125 294.835765 
L 383.45288 294.835765 
L 383.45288 303.967059 
L 102.378125 303.967059 
z
" style="fill:#3274a1;stroke:#ffffff;stroke-linejoin:miter;"/>
   </g>
   <g id="patch_27">
    <path clip-path="url(#pd546034767)" d="M 102.378125 340.492235 
L 529.526579 340.492235 
L 529.526579 349.623529 
L 102.378125 349.623529 
z
" style="fill:#3274a1;stroke:#ffffff;stroke-linejoin:miter;"/>
   </g>
   <g id="patch_28">
    <path clip-path="url(#pd546034767)" d="M 102.378125 386.148706 
L 548.477831 386.148706 
L 548.477831 395.28 
L 102.378125 395.28 
z
" style="fill:#3274a1;stroke:#ffffff;stroke-linejoin:miter;"/>
   </g>
   <g id="patch_29">
    <path clip-path="url(#pd546034767)" d="M 102.378125 431.805176 
L 442.223057 431.805176 
L 442.223057 440.936471 
L 102.378125 440.936471 
z
" style="fill:#3274a1;stroke:#ffffff;stroke-linejoin:miter;"/>
   </g>
   <g id="patch_30">
    <path clip-path="url(#pd546034767)" d="M 102.378125 477.461647 
L 450.740473 477.461647 
L 450.740473 486.592941 
L 102.378125 486.592941 
z
" style="fill:#3274a1;stroke:#ffffff;stroke-linejoin:miter;"/>
   </g>
   <g id="patch_31">
    <path clip-path="url(#pd546034767)" d="M 102.378125 523.118118 
L 724.149554 523.118118 
L 724.149554 532.249412 
L 102.378125 532.249412 
z
" style="fill:#3274a1;stroke:#ffffff;stroke-linejoin:miter;"/>
   </g>
   <g id="patch_32">
    <path clip-path="url(#pd546034767)" d="M 102.378125 568.774588 
L 500.780297 568.774588 
L 500.780297 577.905882 
L 102.378125 577.905882 
z
" style="fill:#3274a1;stroke:#ffffff;stroke-linejoin:miter;"/>
   </g>
   <g id="patch_33">
    <path clip-path="url(#pd546034767)" d="M 102.378125 614.431059 
L 352.79018 614.431059 
L 352.79018 623.562353 
L 102.378125 623.562353 
z
" style="fill:#3274a1;stroke:#ffffff;stroke-linejoin:miter;"/>
   </g>
   <g id="patch_34">
    <path clip-path="url(#pd546034767)" d="M 102.378125 660.087529 
L 418.80016 660.087529 
L 418.80016 669.218824 
L 102.378125 669.218824 
z
" style="fill:#3274a1;stroke:#ffffff;stroke-linejoin:miter;"/>
   </g>
   <g id="patch_35">
    <path clip-path="url(#pd546034767)" d="M 102.378125 705.744 
L 408.57926 705.744 
L 408.57926 714.875294 
L 102.378125 714.875294 
z
" style="fill:#3274a1;stroke:#ffffff;stroke-linejoin:miter;"/>
   </g>
   <g id="patch_36">
    <path clip-path="url(#pd546034767)" d="M 102.378125 751.400471 
L 429.872802 751.400471 
L 429.872802 760.531765 
L 102.378125 760.531765 
z
" style="fill:#3274a1;stroke:#ffffff;stroke-linejoin:miter;"/>
   </g>
   <g id="patch_37">
    <path clip-path="url(#pd546034767)" d="M 102.378125 30.028235 
L 459.457794 30.028235 
L 459.457794 39.159529 
L 102.378125 39.159529 
z
" style="fill:#b3d495;stroke:#ffffff;stroke-linejoin:miter;"/>
   </g>
   <g id="patch_38">
    <path clip-path="url(#pd546034767)" d="M 102.378125 75.684706 
L 461.705803 75.684706 
L 461.705803 84.816 
L 102.378125 84.816 
z
" style="fill:#b3d495;stroke:#ffffff;stroke-linejoin:miter;"/>
   </g>
   <g id="patch_39">
    <path clip-path="url(#pd546034767)" d="M 102.378125 121.341176 
L 462.897481 121.341176 
L 462.897481 130.472471 
L 102.378125 130.472471 
z
" style="fill:#b3d495;stroke:#ffffff;stroke-linejoin:miter;"/>
   </g>
   <g id="patch_40">
    <path clip-path="url(#pd546034767)" d="M 102.378125 166.997647 
L 466.182771 166.997647 
L 466.182771 176.128941 
L 102.378125 176.128941 
z
" style="fill:#b3d495;stroke:#ffffff;stroke-linejoin:miter;"/>
   </g>
   <g id="patch_41">
    <path clip-path="url(#pd546034767)" d="M 102.378125 212.654118 
L 462.115704 212.654118 
L 462.115704 221.785412 
L 102.378125 221.785412 
z
" style="fill:#b3d495;stroke:#ffffff;stroke-linejoin:miter;"/>
   </g>
   <g id="patch_42">
    <path clip-path="url(#pd546034767)" d="M 102.378125 258.310588 
L 466.555408 258.310588 
L 466.555408 267.441882 
L 102.378125 267.441882 
z
" style="fill:#b3d495;stroke:#ffffff;stroke-linejoin:miter;"/>
   </g>
   <g id="patch_43">
    <path clip-path="url(#pd546034767)" d="M 102.378125 303.967059 
L 465.109221 303.967059 
L 465.109221 313.098353 
L 102.378125 313.098353 
z
" style="fill:#b3d495;stroke:#ffffff;stroke-linejoin:miter;"/>
   </g>
   <g id="patch_44">
    <path clip-path="url(#pd546034767)" d="M 102.378125 349.623529 
L 456.004457 349.623529 
L 456.004457 358.754824 
L 102.378125 358.754824 
z
" style="fill:#b3d495;stroke:#ffffff;stroke-linejoin:miter;"/>
   </g>
   <g id="patch_45">
    <path clip-path="url(#pd546034767)" d="M 102.378125 395.28 
L 455.735626 395.28 
L 455.735626 404.411294 
L 102.378125 404.411294 
z
" style="fill:#b3d495;stroke:#ffffff;stroke-linejoin:miter;"/>
   </g>
   <g id="patch_46">
    <path clip-path="url(#pd546034767)" d="M 102.378125 440.936471 
L 462.37655 440.936471 
L 462.37655 450.067765 
L 102.378125 450.067765 
z
" style="fill:#b3d495;stroke:#ffffff;stroke-linejoin:miter;"/>
   </g>
   <g id="patch_47">
    <path clip-path="url(#pd546034767)" d="M 102.378125 486.592941 
L 461.573203 486.592941 
L 461.573203 495.724235 
L 102.378125 495.724235 
z
" style="fill:#b3d495;stroke:#ffffff;stroke-linejoin:miter;"/>
   </g>
   <g id="patch_48">
    <path clip-path="url(#pd546034767)" d="M 102.378125 532.249412 
L 444.756144 532.249412 
L 444.756144 541.380706 
L 102.378125 541.380706 
z
" style="fill:#b3d495;stroke:#ffffff;stroke-linejoin:miter;"/>
   </g>
   <g id="patch_49">
    <path clip-path="url(#pd546034767)" d="M 102.378125 577.905882 
L 458.716722 577.905882 
L 458.716722 587.037176 
L 102.378125 587.037176 
z
" style="fill:#b3d495;stroke:#ffffff;stroke-linejoin:miter;"/>
   </g>
   <g id="patch_50">
    <path clip-path="url(#pd546034767)" d="M 102.378125 623.562353 
L 465.592762 623.562353 
L 465.592762 632.693647 
L 102.378125 632.693647 
z
" style="fill:#b3d495;stroke:#ffffff;stroke-linejoin:miter;"/>
   </g>
   <g id="patch_51">
    <path clip-path="url(#pd546034767)" d="M 102.378125 669.218824 
L 463.840481 669.218824 
L 463.840481 678.350118 
L 102.378125 678.350118 
z
" style="fill:#b3d495;stroke:#ffffff;stroke-linejoin:miter;"/>
   </g>
   <g id="patch_52">
    <path clip-path="url(#pd546034767)" d="M 102.378125 714.875294 
L 464.479287 714.875294 
L 464.479287 724.006588 
L 102.378125 724.006588 
z
" style="fill:#b3d495;stroke:#ffffff;stroke-linejoin:miter;"/>
   </g>
   <g id="patch_53">
    <path clip-path="url(#pd546034767)" d="M 102.378125 760.531765 
L 463.148441 760.531765 
L 463.148441 769.663059 
L 102.378125 769.663059 
z
" style="fill:#b3d495;stroke:#ffffff;stroke-linejoin:miter;"/>
   </g>
   <g id="patch_54">
    <path clip-path="url(#pd546034767)" d="M 102.378125 39.159529 
L 430.405141 39.159529 
L 430.405141 48.290824 
L 102.378125 48.290824 
z
" style="fill:#40923a;stroke:#ffffff;stroke-linejoin:miter;"/>
   </g>
   <g id="patch_55">
    <path clip-path="url(#pd546034767)" d="M 102.378125 84.816 
L 430.405141 84.816 
L 430.405141 93.947294 
L 102.378125 93.947294 
z
" style="fill:#40923a;stroke:#ffffff;stroke-linejoin:miter;"/>
   </g>
   <g id="patch_56">
    <path clip-path="url(#pd546034767)" d="M 102.378125 130.472471 
L 434.131511 130.472471 
L 434.131511 139.603765 
L 102.378125 139.603765 
z
" style="fill:#40923a;stroke:#ffffff;stroke-linejoin:miter;"/>
   </g>
   <g id="patch_57">
    <path clip-path="url(#pd546034767)" d="M 102.378125 176.128941 
L 434.663849 176.128941 
L 434.663849 185.260235 
L 102.378125 185.260235 
z
" style="fill:#40923a;stroke:#ffffff;stroke-linejoin:miter;"/>
   </g>
   <g id="patch_58">
    <path clip-path="url(#pd546034767)" d="M 102.378125 221.785412 
L 434.663849 221.785412 
L 434.663849 230.916706 
L 102.378125 230.916706 
z
" style="fill:#40923a;stroke:#ffffff;stroke-linejoin:miter;"/>
   </g>
   <g id="patch_59">
    <path clip-path="url(#pd546034767)" d="M 102.378125 267.441882 
L 434.663849 267.441882 
L 434.663849 276.573176 
L 102.378125 276.573176 
z
" style="fill:#40923a;stroke:#ffffff;stroke-linejoin:miter;"/>
   </g>
   <g id="patch_60">
    <path clip-path="url(#pd546034767)" d="M 102.378125 313.098353 
L 434.663849 313.098353 
L 434.663849 322.229647 
L 102.378125 322.229647 
z
" style="fill:#40923a;stroke:#ffffff;stroke-linejoin:miter;"/>
   </g>
   <g id="patch_61">
    <path clip-path="url(#pd546034767)" d="M 102.378125 358.754824 
L 430.405141 358.754824 
L 430.405141 367.886118 
L 102.378125 367.886118 
z
" style="fill:#40923a;stroke:#ffffff;stroke-linejoin:miter;"/>
   </g>
   <g id="patch_62">
    <path clip-path="url(#pd546034767)" d="M 102.378125 404.411294 
L 430.405141 404.411294 
L 430.405141 413.542588 
L 102.378125 413.542588 
z
" style="fill:#40923a;stroke:#ffffff;stroke-linejoin:miter;"/>
   </g>
   <g id="patch_63">
    <path clip-path="url(#pd546034767)" d="M 102.378125 450.067765 
L 430.405141 450.067765 
L 430.405141 459.199059 
L 102.378125 459.199059 
z
" style="fill:#40923a;stroke:#ffffff;stroke-linejoin:miter;"/>
   </g>
   <g id="patch_64">
    <path clip-path="url(#pd546034767)" d="M 102.378125 495.724235 
L 430.405141 495.724235 
L 430.405141 504.855529 
L 102.378125 504.855529 
z
" style="fill:#40923a;stroke:#ffffff;stroke-linejoin:miter;"/>
   </g>
   <g id="patch_65">
    <path clip-path="url(#pd546034767)" d="M 102.378125 541.380706 
L 430.405141 541.380706 
L 430.405141 550.512 
L 102.378125 550.512 
z
" style="fill:#40923a;stroke:#ffffff;stroke-linejoin:miter;"/>
   </g>
   <g id="patch_66">
    <path clip-path="url(#pd546034767)" d="M 102.378125 587.037176 
L 430.405141 587.037176 
L 430.405141 596.168471 
L 102.378125 596.168471 
z
" style="fill:#40923a;stroke:#ffffff;stroke-linejoin:miter;"/>
   </g>
   <g id="patch_67">
    <path clip-path="url(#pd546034767)" d="M 102.378125 632.693647 
L 434.663849 632.693647 
L 434.663849 641.824941 
L 102.378125 641.824941 
z
" style="fill:#40923a;stroke:#ffffff;stroke-linejoin:miter;"/>
   </g>
   <g id="patch_68">
    <path clip-path="url(#pd546034767)" d="M 102.378125 678.350118 
L 434.663849 678.350118 
L 434.663849 687.481412 
L 102.378125 687.481412 
z
" style="fill:#40923a;stroke:#ffffff;stroke-linejoin:miter;"/>
   </g>
   <g id="patch_69">
    <path clip-path="url(#pd546034767)" d="M 102.378125 724.006588 
L 434.663849 724.006588 
L 434.663849 733.137882 
L 102.378125 733.137882 
z
" style="fill:#40923a;stroke:#ffffff;stroke-linejoin:miter;"/>
   </g>
   <g id="patch_70">
    <path clip-path="url(#pd546034767)" d="M 102.378125 769.663059 
L 434.663849 769.663059 
L 434.663849 778.794353 
L 102.378125 778.794353 
z
" style="fill:#40923a;stroke:#ffffff;stroke-linejoin:miter;"/>
   </g>
   <g id="line2d_1">
    <path clip-path="url(#pd546034767)" style="fill:none;stroke:#1a1a1a;stroke-linecap:round;stroke-width:2.7;"/>
   </g>
   <g id="line2d_2">
    <path clip-path="url(#pd546034767)" style="fill:none;stroke:#1a1a1a;stroke-linecap:round;stroke-width:2.7;"/>
   </g>
   <g id="line2d_3">
    <path clip-path="url(#pd546034767)" style="fill:none;stroke:#1a1a1a;stroke-linecap:round;stroke-width:2.7;"/>
   </g>
   <g id="line2d_4">
    <path clip-path="url(#pd546034767)" style="fill:none;stroke:#1a1a1a;stroke-linecap:round;stroke-width:2.7;"/>
   </g>
   <g id="line2d_5">
    <path clip-path="url(#pd546034767)" style="fill:none;stroke:#1a1a1a;stroke-linecap:round;stroke-width:2.7;"/>
   </g>
   <g id="line2d_6">
    <path clip-path="url(#pd546034767)" style="fill:none;stroke:#1a1a1a;stroke-linecap:round;stroke-width:2.7;"/>
   </g>
   <g id="line2d_7">
    <path clip-path="url(#pd546034767)" style="fill:none;stroke:#1a1a1a;stroke-linecap:round;stroke-width:2.7;"/>
   </g>
   <g id="line2d_8">
    <path clip-path="url(#pd546034767)" style="fill:none;stroke:#1a1a1a;stroke-linecap:round;stroke-width:2.7;"/>
   </g>
   <g id="line2d_9">
    <path clip-path="url(#pd546034767)" style="fill:none;stroke:#1a1a1a;stroke-linecap:round;stroke-width:2.7;"/>
   </g>
   <g id="line2d_10">
    <path clip-path="url(#pd546034767)" style="fill:none;stroke:#1a1a1a;stroke-linecap:round;stroke-width:2.7;"/>
   </g>
   <g id="line2d_11">
    <path clip-path="url(#pd546034767)" style="fill:none;stroke:#1a1a1a;stroke-linecap:round;stroke-width:2.7;"/>
   </g>
   <g id="line2d_12">
    <path clip-path="url(#pd546034767)" style="fill:none;stroke:#1a1a1a;stroke-linecap:round;stroke-width:2.7;"/>
   </g>
   <g id="line2d_13">
    <path clip-path="url(#pd546034767)" style="fill:none;stroke:#1a1a1a;stroke-linecap:round;stroke-width:2.7;"/>
   </g>
   <g id="line2d_14">
    <path clip-path="url(#pd546034767)" style="fill:none;stroke:#1a1a1a;stroke-linecap:round;stroke-width:2.7;"/>
   </g>
   <g id="line2d_15">
    <path clip-path="url(#pd546034767)" style="fill:none;stroke:#1a1a1a;stroke-linecap:round;stroke-width:2.7;"/>
   </g>
   <g id="line2d_16">
    <path clip-path="url(#pd546034767)" style="fill:none;stroke:#1a1a1a;stroke-linecap:round;stroke-width:2.7;"/>
   </g>
   <g id="line2d_17">
    <path clip-path="url(#pd546034767)" style="fill:none;stroke:#1a1a1a;stroke-linecap:round;stroke-width:2.7;"/>
   </g>
   <g id="line2d_18">
    <path clip-path="url(#pd546034767)" style="fill:none;stroke:#1a1a1a;stroke-linecap:round;stroke-width:2.7;"/>
   </g>
   <g id="line2d_19">
    <path clip-path="url(#pd546034767)" style="fill:none;stroke:#1a1a1a;stroke-linecap:round;stroke-width:2.7;"/>
   </g>
   <g id="line2d_20">
    <path clip-path="url(#pd546034767)" style="fill:none;stroke:#1a1a1a;stroke-linecap:round;stroke-width:2.7;"/>
   </g>
   <g id="line2d_21">
    <path clip-path="url(#pd546034767)" style="fill:none;stroke:#1a1a1a;stroke-linecap:round;stroke-width:2.7;"/>
   </g>
   <g id="line2d_22">
    <path clip-path="url(#pd546034767)" style="fill:none;stroke:#1a1a1a;stroke-linecap:round;stroke-width:2.7;"/>
   </g>
   <g id="line2d_23">
    <path clip-path="url(#pd546034767)" style="fill:none;stroke:#1a1a1a;stroke-linecap:round;stroke-width:2.7;"/>
   </g>
   <g id="line2d_24">
    <path clip-path="url(#pd546034767)" style="fill:none;stroke:#1a1a1a;stroke-linecap:round;stroke-width:2.7;"/>
   </g>
   <g id="line2d_25">
    <path clip-path="url(#pd546034767)" style="fill:none;stroke:#1a1a1a;stroke-linecap:round;stroke-width:2.7;"/>
   </g>
   <g id="line2d_26">
    <path clip-path="url(#pd546034767)" style="fill:none;stroke:#1a1a1a;stroke-linecap:round;stroke-width:2.7;"/>
   </g>
   <g id="line2d_27">
    <path clip-path="url(#pd546034767)" style="fill:none;stroke:#1a1a1a;stroke-linecap:round;stroke-width:2.7;"/>
   </g>
   <g id="line2d_28">
    <path clip-path="url(#pd546034767)" style="fill:none;stroke:#1a1a1a;stroke-linecap:round;stroke-width:2.7;"/>
   </g>
   <g id="line2d_29">
    <path clip-path="url(#pd546034767)" style="fill:none;stroke:#1a1a1a;stroke-linecap:round;stroke-width:2.7;"/>
   </g>
   <g id="line2d_30">
    <path clip-path="url(#pd546034767)" style="fill:none;stroke:#1a1a1a;stroke-linecap:round;stroke-width:2.7;"/>
   </g>
   <g id="line2d_31">
    <path clip-path="url(#pd546034767)" style="fill:none;stroke:#1a1a1a;stroke-linecap:round;stroke-width:2.7;"/>
   </g>
   <g id="line2d_32">
    <path clip-path="url(#pd546034767)" style="fill:none;stroke:#1a1a1a;stroke-linecap:round;stroke-width:2.7;"/>
   </g>
   <g id="line2d_33">
    <path clip-path="url(#pd546034767)" style="fill:none;stroke:#1a1a1a;stroke-linecap:round;stroke-width:2.7;"/>
   </g>
   <g id="line2d_34">
    <path clip-path="url(#pd546034767)" style="fill:none;stroke:#1a1a1a;stroke-linecap:round;stroke-width:2.7;"/>
   </g>
   <g id="line2d_35">
    <path clip-path="url(#pd546034767)" style="fill:none;stroke:#1a1a1a;stroke-linecap:round;stroke-width:2.7;"/>
   </g>
   <g id="line2d_36">
    <path clip-path="url(#pd546034767)" style="fill:none;stroke:#1a1a1a;stroke-linecap:round;stroke-width:2.7;"/>
   </g>
   <g id="line2d_37">
    <path clip-path="url(#pd546034767)" style="fill:none;stroke:#1a1a1a;stroke-linecap:round;stroke-width:2.7;"/>
   </g>
   <g id="line2d_38">
    <path clip-path="url(#pd546034767)" style="fill:none;stroke:#1a1a1a;stroke-linecap:round;stroke-width:2.7;"/>
   </g>
   <g id="line2d_39">
    <path clip-path="url(#pd546034767)" style="fill:none;stroke:#1a1a1a;stroke-linecap:round;stroke-width:2.7;"/>
   </g>
   <g id="line2d_40">
    <path clip-path="url(#pd546034767)" style="fill:none;stroke:#1a1a1a;stroke-linecap:round;stroke-width:2.7;"/>
   </g>
   <g id="line2d_41">
    <path clip-path="url(#pd546034767)" style="fill:none;stroke:#1a1a1a;stroke-linecap:round;stroke-width:2.7;"/>
   </g>
   <g id="line2d_42">
    <path clip-path="url(#pd546034767)" style="fill:none;stroke:#1a1a1a;stroke-linecap:round;stroke-width:2.7;"/>
   </g>
   <g id="line2d_43">
    <path clip-path="url(#pd546034767)" style="fill:none;stroke:#1a1a1a;stroke-linecap:round;stroke-width:2.7;"/>
   </g>
   <g id="line2d_44">
    <path clip-path="url(#pd546034767)" style="fill:none;stroke:#1a1a1a;stroke-linecap:round;stroke-width:2.7;"/>
   </g>
   <g id="line2d_45">
    <path clip-path="url(#pd546034767)" style="fill:none;stroke:#1a1a1a;stroke-linecap:round;stroke-width:2.7;"/>
   </g>
   <g id="line2d_46">
    <path clip-path="url(#pd546034767)" style="fill:none;stroke:#1a1a1a;stroke-linecap:round;stroke-width:2.7;"/>
   </g>
   <g id="line2d_47">
    <path clip-path="url(#pd546034767)" style="fill:none;stroke:#1a1a1a;stroke-linecap:round;stroke-width:2.7;"/>
   </g>
   <g id="line2d_48">
    <path clip-path="url(#pd546034767)" style="fill:none;stroke:#1a1a1a;stroke-linecap:round;stroke-width:2.7;"/>
   </g>
   <g id="line2d_49">
    <path clip-path="url(#pd546034767)" style="fill:none;stroke:#1a1a1a;stroke-linecap:round;stroke-width:2.7;"/>
   </g>
   <g id="line2d_50">
    <path clip-path="url(#pd546034767)" style="fill:none;stroke:#1a1a1a;stroke-linecap:round;stroke-width:2.7;"/>
   </g>
   <g id="line2d_51">
    <path clip-path="url(#pd546034767)" style="fill:none;stroke:#1a1a1a;stroke-linecap:round;stroke-width:2.7;"/>
   </g>
   <g id="line2d_52">
    <path clip-path="url(#pd546034767)" style="fill:none;stroke:#1a1a1a;stroke-linecap:round;stroke-width:2.7;"/>
   </g>
   <g id="line2d_53">
    <path clip-path="url(#pd546034767)" style="fill:none;stroke:#1a1a1a;stroke-linecap:round;stroke-width:2.7;"/>
   </g>
   <g id="line2d_54">
    <path clip-path="url(#pd546034767)" style="fill:none;stroke:#1a1a1a;stroke-linecap:round;stroke-width:2.7;"/>
   </g>
   <g id="line2d_55">
    <path clip-path="url(#pd546034767)" style="fill:none;stroke:#1a1a1a;stroke-linecap:round;stroke-width:2.7;"/>
   </g>
   <g id="line2d_56">
    <path clip-path="url(#pd546034767)" style="fill:none;stroke:#1a1a1a;stroke-linecap:round;stroke-width:2.7;"/>
   </g>
   <g id="line2d_57">
    <path clip-path="url(#pd546034767)" style="fill:none;stroke:#1a1a1a;stroke-linecap:round;stroke-width:2.7;"/>
   </g>
   <g id="line2d_58">
    <path clip-path="url(#pd546034767)" style="fill:none;stroke:#1a1a1a;stroke-linecap:round;stroke-width:2.7;"/>
   </g>
   <g id="line2d_59">
    <path clip-path="url(#pd546034767)" style="fill:none;stroke:#1a1a1a;stroke-linecap:round;stroke-width:2.7;"/>
   </g>
   <g id="line2d_60">
    <path clip-path="url(#pd546034767)" style="fill:none;stroke:#1a1a1a;stroke-linecap:round;stroke-width:2.7;"/>
   </g>
   <g id="line2d_61">
    <path clip-path="url(#pd546034767)" style="fill:none;stroke:#1a1a1a;stroke-linecap:round;stroke-width:2.7;"/>
   </g>
   <g id="line2d_62">
    <path clip-path="url(#pd546034767)" style="fill:none;stroke:#1a1a1a;stroke-linecap:round;stroke-width:2.7;"/>
   </g>
   <g id="line2d_63">
    <path clip-path="url(#pd546034767)" style="fill:none;stroke:#1a1a1a;stroke-linecap:round;stroke-width:2.7;"/>
   </g>
   <g id="line2d_64">
    <path clip-path="url(#pd546034767)" style="fill:none;stroke:#1a1a1a;stroke-linecap:round;stroke-width:2.7;"/>
   </g>
   <g id="line2d_65">
    <path clip-path="url(#pd546034767)" style="fill:none;stroke:#1a1a1a;stroke-linecap:round;stroke-width:2.7;"/>
   </g>
   <g id="line2d_66">
    <path clip-path="url(#pd546034767)" style="fill:none;stroke:#1a1a1a;stroke-linecap:round;stroke-width:2.7;"/>
   </g>
   <g id="line2d_67">
    <path clip-path="url(#pd546034767)" style="fill:none;stroke:#1a1a1a;stroke-linecap:round;stroke-width:2.7;"/>
   </g>
   <g id="line2d_68">
    <path clip-path="url(#pd546034767)" style="fill:none;stroke:#1a1a1a;stroke-linecap:round;stroke-width:2.7;"/>
   </g>
   <g id="patch_71">
    <path d="M 102.378125 783.36 
L 102.378125 7.2 
" style="fill:none;stroke:#262626;stroke-linecap:square;stroke-linejoin:miter;stroke-width:1.25;"/>
   </g>
   <g id="patch_72">
    <path d="M 755.238125 783.36 
L 755.238125 7.2 
" style="fill:none;stroke:#262626;stroke-linecap:square;stroke-linejoin:miter;stroke-width:1.25;"/>
   </g>
   <g id="patch_73">
    <path d="M 102.378125 783.36 
L 755.238125 783.36 
" style="fill:none;stroke:#262626;stroke-linecap:square;stroke-linejoin:miter;stroke-width:1.25;"/>
   </g>
   <g id="patch_74">
    <path d="M 102.378125 7.2 
L 755.238125 7.2 
" style="fill:none;stroke:#262626;stroke-linecap:square;stroke-linejoin:miter;stroke-width:1.25;"/>
   </g>
   <g id="legend_1">
    <g id="patch_75">
     <path d="M 596.166094 927.56725 
L 753.038125 927.56725 
Q 755.238125 927.56725 755.238125 925.36725 
L 755.238125 863.176 
Q 755.238125 860.976 753.038125 860.976 
L 596.166094 860.976 
Q 593.966094 860.976 593.966094 863.176 
L 593.966094 925.36725 
Q 593.966094 927.56725 596.166094 927.56725 
z
" style="fill:#ffffff;opacity:0.8;stroke:#cccccc;stroke-linejoin:miter;"/>
    </g>
    <g id="patch_76">
     <path d="M 598.366094 873.383656 
L 620.366094 873.383656 
L 620.366094 865.683656 
L 598.366094 865.683656 
z
" style="fill:#aeccdb;stroke:#ffffff;stroke-linejoin:miter;"/>
    </g>
    <g id="text_28">
     <!-- optimal alpha (mean) -->
     <g style="fill:#262626;" transform="translate(629.166094 873.383656)scale(0.11 -0.11)">
      <defs>
       <path id="ArialMT-20" transform="scale(0.015625)"/>
       <path d="M 1497 -1347 
Q 1031 -759 709 28 
Q 388 816 388 1659 
Q 388 2403 628 3084 
Q 909 3875 1497 4659 
L 1900 4659 
Q 1522 4009 1400 3731 
Q 1209 3300 1100 2831 
Q 966 2247 966 1656 
Q 966 153 1900 -1347 
L 1497 -1347 
z
" id="ArialMT-28" transform="scale(0.015625)"/>
       <path d="M 791 -1347 
L 388 -1347 
Q 1322 153 1322 1656 
Q 1322 2244 1188 2822 
Q 1081 3291 891 3722 
Q 769 4003 388 4659 
L 791 4659 
Q 1378 3875 1659 3084 
Q 1900 2403 1900 1659 
Q 1900 816 1576 28 
Q 1253 -759 791 -1347 
z
" id="ArialMT-29" transform="scale(0.015625)"/>
      </defs>
      <use xlink:href="#ArialMT-6f"/>
      <use x="55.615234" xlink:href="#ArialMT-70"/>
      <use x="111.230469" xlink:href="#ArialMT-74"/>
      <use x="139.013672" xlink:href="#ArialMT-69"/>
      <use x="161.230469" xlink:href="#ArialMT-6d"/>
      <use x="244.53125" xlink:href="#ArialMT-61"/>
      <use x="300.146484" xlink:href="#ArialMT-6c"/>
      <use x="322.363281" xlink:href="#ArialMT-20"/>
      <use x="350.146484" xlink:href="#ArialMT-61"/>
      <use x="405.761719" xlink:href="#ArialMT-6c"/>
      <use x="427.978516" xlink:href="#ArialMT-70"/>
      <use x="483.59375" xlink:href="#ArialMT-68"/>
      <use x="539.208984" xlink:href="#ArialMT-61"/>
      <use x="594.824219" xlink:href="#ArialMT-20"/>
      <use x="622.607422" xlink:href="#ArialMT-28"/>
      <use x="655.908203" xlink:href="#ArialMT-6d"/>
      <use x="739.208984" xlink:href="#ArialMT-65"/>
      <use x="794.824219" xlink:href="#ArialMT-61"/>
      <use x="850.439453" xlink:href="#ArialMT-6e"/>
      <use x="906.054688" xlink:href="#ArialMT-29"/>
     </g>
    </g>
    <g id="patch_77">
     <path d="M 598.366094 889.206469 
L 620.366094 889.206469 
L 620.366094 881.506469 
L 598.366094 881.506469 
z
" style="fill:#3274a1;stroke:#ffffff;stroke-linejoin:miter;"/>
    </g>
    <g id="text_29">
     <!-- optimal alpha (median) -->
     <g style="fill:#262626;" transform="translate(629.166094 889.206469)scale(0.11 -0.11)">
      <use xlink:href="#ArialMT-6f"/>
      <use x="55.615234" xlink:href="#ArialMT-70"/>
      <use x="111.230469" xlink:href="#ArialMT-74"/>
      <use x="139.013672" xlink:href="#ArialMT-69"/>
      <use x="161.230469" xlink:href="#ArialMT-6d"/>
      <use x="244.53125" xlink:href="#ArialMT-61"/>
      <use x="300.146484" xlink:href="#ArialMT-6c"/>
      <use x="322.363281" xlink:href="#ArialMT-20"/>
      <use x="350.146484" xlink:href="#ArialMT-61"/>
      <use x="405.761719" xlink:href="#ArialMT-6c"/>
      <use x="427.978516" xlink:href="#ArialMT-70"/>
      <use x="483.59375" xlink:href="#ArialMT-68"/>
      <use x="539.208984" xlink:href="#ArialMT-61"/>
      <use x="594.824219" xlink:href="#ArialMT-20"/>
      <use x="622.607422" xlink:href="#ArialMT-28"/>
      <use x="655.908203" xlink:href="#ArialMT-6d"/>
      <use x="739.208984" xlink:href="#ArialMT-65"/>
      <use x="794.824219" xlink:href="#ArialMT-64"/>
      <use x="850.439453" xlink:href="#ArialMT-69"/>
      <use x="872.65625" xlink:href="#ArialMT-61"/>
      <use x="928.271484" xlink:href="#ArialMT-6e"/>
      <use x="983.886719" xlink:href="#ArialMT-29"/>
     </g>
    </g>
    <g id="patch_78">
     <path d="M 598.366094 905.029281 
L 620.366094 905.029281 
L 620.366094 897.329281 
L 598.366094 897.329281 
z
" style="fill:#b3d495;stroke:#ffffff;stroke-linejoin:miter;"/>
    </g>
    <g id="text_30">
     <!-- predicted alpha (mean) -->
     <g style="fill:#262626;" transform="translate(629.166094 905.029281)scale(0.11 -0.11)">
      <use xlink:href="#ArialMT-70"/>
      <use x="55.615234" xlink:href="#ArialMT-72"/>
      <use x="88.916016" xlink:href="#ArialMT-65"/>
      <use x="144.53125" xlink:href="#ArialMT-64"/>
      <use x="200.146484" xlink:href="#ArialMT-69"/>
      <use x="222.363281" xlink:href="#ArialMT-63"/>
      <use x="272.363281" xlink:href="#ArialMT-74"/>
      <use x="300.146484" xlink:href="#ArialMT-65"/>
      <use x="355.761719" xlink:href="#ArialMT-64"/>
      <use x="411.376953" xlink:href="#ArialMT-20"/>
      <use x="439.160156" xlink:href="#ArialMT-61"/>
      <use x="494.775391" xlink:href="#ArialMT-6c"/>
      <use x="516.992188" xlink:href="#ArialMT-70"/>
      <use x="572.607422" xlink:href="#ArialMT-68"/>
      <use x="628.222656" xlink:href="#ArialMT-61"/>
      <use x="683.837891" xlink:href="#ArialMT-20"/>
      <use x="711.621094" xlink:href="#ArialMT-28"/>
      <use x="744.921875" xlink:href="#ArialMT-6d"/>
      <use x="828.222656" xlink:href="#ArialMT-65"/>
      <use x="883.837891" xlink:href="#ArialMT-61"/>
      <use x="939.453125" xlink:href="#ArialMT-6e"/>
      <use x="995.068359" xlink:href="#ArialMT-29"/>
     </g>
    </g>
    <g id="patch_79">
     <path d="M 598.366094 920.852094 
L 620.366094 920.852094 
L 620.366094 913.152094 
L 598.366094 913.152094 
z
" style="fill:#40923a;stroke:#ffffff;stroke-linejoin:miter;"/>
    </g>
    <g id="text_31">
     <!-- predicted alpha (median) -->
     <g style="fill:#262626;" transform="translate(629.166094 920.852094)scale(0.11 -0.11)">
      <use xlink:href="#ArialMT-70"/>
      <use x="55.615234" xlink:href="#ArialMT-72"/>
      <use x="88.916016" xlink:href="#ArialMT-65"/>
      <use x="144.53125" xlink:href="#ArialMT-64"/>
      <use x="200.146484" xlink:href="#ArialMT-69"/>
      <use x="222.363281" xlink:href="#ArialMT-63"/>
      <use x="272.363281" xlink:href="#ArialMT-74"/>
      <use x="300.146484" xlink:href="#ArialMT-65"/>
      <use x="355.761719" xlink:href="#ArialMT-64"/>
      <use x="411.376953" xlink:href="#ArialMT-20"/>
      <use x="439.160156" xlink:href="#ArialMT-61"/>
      <use x="494.775391" xlink:href="#ArialMT-6c"/>
      <use x="516.992188" xlink:href="#ArialMT-70"/>
      <use x="572.607422" xlink:href="#ArialMT-68"/>
      <use x="628.222656" xlink:href="#ArialMT-61"/>
      <use x="683.837891" xlink:href="#ArialMT-20"/>
      <use x="711.621094" xlink:href="#ArialMT-28"/>
      <use x="744.921875" xlink:href="#ArialMT-6d"/>
      <use x="828.222656" xlink:href="#ArialMT-65"/>
      <use x="883.837891" xlink:href="#ArialMT-64"/>
      <use x="939.453125" xlink:href="#ArialMT-69"/>
      <use x="961.669922" xlink:href="#ArialMT-61"/>
      <use x="1017.285156" xlink:href="#ArialMT-6e"/>
      <use x="1072.900391" xlink:href="#ArialMT-29"/>
     </g>
    </g>
   </g>
  </g>
 </g>
 <defs>
  <clipPath id="pd546034767">
   <rect height="776.16" width="652.86" x="102.378125" y="7.2"/>
  </clipPath>
 </defs>
</svg>
